<svg id="Camada_1" data-name="Camada 1" xmlns="http://www.w3.org/2000/svg" viewBox="0 0 256 256"><defs><style>.cls-1{fill:#fff;}</style></defs><title>Prancheta 1.3</title><path d="M.35,66.4c.86.54,1.73,1.06,2.57,1.64q49,33.55,97.87,67.19a6.9,6.9,0,0,1,2.5,3.83c1,4.31,1.5,8.73,2.45,13.05a8.37,8.37,0,0,0,2.17,3.41,6.88,6.88,0,0,0,2.63,1.74c7.08,2.62,7.53,8.84,8.37,15.27-.86-.62-1.49-1-2.06-1.5-6.69-5.66-13.4-11.3-20-17a9.15,9.15,0,0,1-2.57-3.37c-1.41-3.62-3.86-6.24-6.78-8.73Q44.74,105.42,2.12,68.8C1.39,68.18.7,67.51,0,66.86Z"/><path d="M256,66.87q-5.42,4.68-10.84,9.36-39.6,33.94-79.18,67.9a10.62,10.62,0,0,0-2.9,3.83,20.14,20.14,0,0,1-6.25,8.08c-6.55,5.35-12.93,10.9-20.1,17,.9-4.25,1.47-7.69,2.45-11,.29-1,1.64-1.9,2.71-2.37,6.34-2.77,9.62-7.47,9.59-14.45,0-6.38,3.43-10.11,8.64-13.62,31.23-21.05,62.2-42.47,93.26-63.75.74-.51,1.53-.93,2.3-1.39Z"/><path d="M135.29,218.55c-.19-2.67-.39-5.34-.58-8,0-.38,0-.77-.06-1.15-.37-3.88-2.94-6.11-7-6.11a6.38,6.38,0,0,0-6.37,6.18c-.24,3-.41,6.1-.68,10.07-3.11-4.5-7.42-7.09-6.94-12.9a169.48,169.48,0,0,0,.07-17c0-1.74.46-2.73,2.25-2.94a6,6,0,0,0,1.67-.44c7.64-3.38,15.14-2,22.67.48a2.33,2.33,0,0,1,1.88,2.67c-.06,6.63,0,13.27,0,19.91a4,4,0,0,1-.45,2.18c-1.86,2.53-3.85,5-5.79,7.42Zm-1-27.13.45-.61c-.33-.73-.47-1.83-1-2.12a11.91,11.91,0,0,0-11.49,0c-.56.29-.71,1.38-1,2.11l.45.61A12.92,12.92,0,0,1,134.28,191.42Zm-13.11,4.43.46.59c4.21-2.18,8.44-2.12,12.89-.33-.12-1.05-.28-2.1-.85-2.39a11.9,11.9,0,0,0-11.47,0C121.65,194,121.51,195.12,121.17,195.85Z"/><path d="M151.39,227V209.69c0-4.13.28-8.3-.06-12.41-.7-8.4.69-16.14,5.54-23.25,1.09-1.6.89-4.09,1.43-6.94l-17.48,7.46-.33-.53,6.1-5.28c3.5-3,7-6.06,10.53-9a3.81,3.81,0,0,1,2.44-.86c2,.15,4,.57,6.1.9,2.19,10.13-3,18.78-7.72,28.24l5.09-2,.72.74-7.32,16.75,5.44-3.33C159.77,210,157.23,219,151.39,227Z"/><path d="M90.9,159.77c2.09-.33,4.1-.7,6.13-1a2.56,2.56,0,0,1,1.76.37c5.78,4.91,11.52,9.87,17,15.37l-17.48-7.44c.56,2.85.37,5.37,1.48,7,4.72,7,5.9,14.66,5.5,23-.47,9.88-.11,19.81-.47,29.83-5.51-7.91-7.94-17-10.19-26.81l5.53,3.35-7.42-17,.86-.51,5,2.06C94.09,178.59,88.55,170,90.9,159.77Z"/><path d="M126.06,153.39h3.8c.11-1.72.21-3.42.33-5.32h7.55s-1.36,9.75-2,14.47c-.63,4.38-1.25,8.75-1.91,13.12-.22,1.4-4.71,5.59-5.71,5.05-2.1-1.14-5.23-2.58-5.59-4.37-1.85-9.21-4.35-26.94-4.35-26.94h7.56Z"/><path d="M139.88,126.66c-.6-4-1.29-8.1-1.78-12.17-.2-1.69-.83-2.3-2.54-2.27-5,.09-10,.1-15,0-1.83,0-2.53.56-2.73,2.39a77.74,77.74,0,0,1-2.24,11.93c-.38-6.63-.87-13.26-1.1-19.91-.1-2.62,2.8-5.08,5.47-5.08q8.09,0,16.18,0c2.58,0,5.45,2.6,5.35,5.21-.26,6.62-.73,13.24-1.11,19.86Z"/><path d="M141.2,99.81c-1.9-.5-3.58-1.27-5.27-1.32-5.38-.17-10.77-.16-16.15,0-1.61,0-3.19.81-5,1.3.66-3.72,1.39-8.06,2.28-12.38.09-.4,1.21-.83,1.85-.83,6.06-.07,12.12-.1,18.18,0a2.79,2.79,0,0,1,2,1.66C140,92.27,140.59,96.33,141.2,99.81Z"/><path d="M160.68,208.48c.81-1.88,1-3.32,1.81-4,7.62-6.35,10.35-15.07,11.84-24.34.56-3.49.57-7.08.88-10.62.15-1.67-.33-2.79-2.1-3.13a9.48,9.48,0,0,1-1.35-.49c-4.84-1.72-4.84-1.72-3.91-7.3,3.9,1,7.8,2,11.65,3.08a2.37,2.37,0,0,1,1.09,1.91c-.62,9.4-1.34,18.81-4.33,27.85-2.32,7-6.21,12.77-13.1,16.06C162.65,207.75,162.1,207.92,160.68,208.48Z"/><path d="M88.31,158.55a20.3,20.3,0,0,0,.13,2.44c.46,2.5-.48,3.74-3,4.53-4.92,1.55-4.91,1.72-4.64,7,.37,7.34,1.35,14.64,4.73,21.23,1.85,3.6,4.75,6.66,7.13,10a13.71,13.71,0,0,1,2,4.1A19.18,19.18,0,0,1,84,200.09c-4.41-6.23-6-13.48-7.07-20.82-.73-5-1.12-10.13-1.47-15.2a3,3,0,0,1,1.41-2.47C80.47,160.45,84.21,159.6,88.31,158.55Z"/><path d="M137.31,127.81c-2,1.47-3.28,3.18-4.83,3.44a28.08,28.08,0,0,1-9,0c-1.55-.26-2.86-2-4.85-3.45.58-3.73,1.3-8.33,2-13h14.63C136,119.46,136.73,124.07,137.31,127.81Z"/><path d="M115.72,132.06c2.67-.05,5-.87,6.5,1.82.3.53,1.47.75,2.25.79a36,36,0,0,0,6.32,0c1.25-.16,2.39-1.12,3.63-1.56,1.67-.6,3.4-1,5.89-1.79-.75,4.87-1.31,8.8-2,12.71a1.81,1.81,0,0,1-1.37,1.07c-6.31.07-12.63.05-19.19.05C117.08,140.77,116.43,136.63,115.72,132.06Z"/><path d="M149.92,125.88c-1.71-2.35-3.43-4.62-5-7a3.18,3.18,0,0,1-.21-1.91q3.1-36.26,6.24-72.51c0-.18.12-.34.49-.51C150.91,71.35,150.41,98.73,149.92,125.88Z"/><path d="M105,43.93q1.51,17.64,3,35.28,1.59,18.42,3.17,36.83a4.13,4.13,0,0,1-1.35,3.95c-1.62,1.56-2.36,4-3.8,6.69-.51-27.88-1-55.3-1.53-82.72Z"/><path d="M112,122.51c1.36,11.38,2.71,22.75,4.15,34.82-2.79-1.84-5-3.26-7.22-4.8a2.71,2.71,0,0,1-1-1.62c-1.41-8.44-1.3-16.81,1.31-25a25.28,25.28,0,0,1,1.81-3.65Z"/><path d="M139.75,157.28l4.17-34.72.87-.31a27.75,27.75,0,0,1,1.87,3.79c2.63,8.15,2.65,16.46,1.27,24.83a2.74,2.74,0,0,1-.93,1.65C144.81,154.05,142.54,155.47,139.75,157.28Z"/><path d="M103.48,133.77l-10.13-6.86c3.21-4.2,2.42-11.14,10.13-12.12Z"/><path d="M162.78,127l-10.06,6.84v-19c3.31.47,5.63,1.38,6.68,4.53C160.25,121.91,161.55,124.29,162.78,127Z"/><path d="M87,156.06l-11.35,2.68c.27-4.91,5.71-12.73,9.87-13.74,1.07-.26,2.76.92,3.75,1.87.49.46.23,2,0,2.9C88.72,151.64,88,153.44,87,156.06Z"/><path d="M169.06,156.1c-1.14-2.71-2.13-4.69-2.78-6.79a3.1,3.1,0,0,1,.57-2.7c1.09-1,2.13-2.73,4.14-1.46,5,3.12,8,7.55,9.79,13.72Z"/><path d="M166.73,172a25.24,25.24,0,0,1,3.92,1c.89.38,2.28,1.33,2.21,1.85-.23,1.65-.58,4-1.72,4.68-3,1.9-6.51,3.09-10.08,4.69Z"/><path d="M89.2,172l5.68,12.18c-3.68-1.63-7.27-2.88-10.45-4.8-1-.63-1.22-3-1.35-4.61,0-.54,1.23-1.39,2-1.73A28.69,28.69,0,0,1,89.2,172Z"/><path d="M110.56,207.87c-2.87-7.06-3.17-14.52-3.28-22.27,2.57.38,4.19,1,4.09,4-.2,6-.06,12.07-.06,18.11Z"/><path d="M148.56,185.52c.06,7.69-.31,15.1-3.13,22.15l-.79,0c0-5.91.16-11.82-.06-17.72C144.46,187,145.8,186,148.56,185.52Z"/><path d="M130.1,221.26h-4v-16h4Z"/><path d="M85.31,188.21l4.9-2.4c1.91,4.29,3.76,8.41,5.91,13.22-1.46-1.31-2.39-2.2-3.38-3-.65-.54-1.38-1.43-2.07-1.43C86.42,194.58,86.49,191.15,85.31,188.21Z"/><path d="M160.06,198.44l5.65-12.51a2.81,2.81,0,0,1,1,.37c1.23.87,3.53,2.11,3.38,2.7-.57,2.25-.59,5-4.23,5.55C163.82,194.87,162,197.06,160.06,198.44Z"/><path d="M132.49,230.58h-9c.72-2.34,1.27-4.54,2.14-6.61a2.73,2.73,0,0,1,2.19-1.17,3.17,3.17,0,0,1,2.49,1.13A59.57,59.57,0,0,1,132.49,230.58Z"/><path d="M124,208c.18,6.49,1.8,13.07-1.38,19.32C122.6,220.82,122.3,214.33,124,208Z"/><path d="M133.34,227c-3.15-6.16-1.47-12.68-1.48-19.07C134,214.16,133.07,220.65,133.34,227Z"/><path d="M117.87,177.86c-6.26,3.84-8.82-.61-11.48-4.82Z"/><path d="M149.19,173.18c-3.86,6.75-3.91,6.77-11,4.63Z"/><path d="M96.49,156.9c-2.75,1.7-4.67,1.33-6.11-.57s-1.15-3.85,1-6.17c.2,2.1-.12,3.91.62,4.93S94.58,156.19,96.49,156.9Z"/><path d="M159.32,156.54c4.35,0,6.06-1.92,4.72-6.24,2.57,2.18,2.9,4.11,1.63,5.92S162.24,158.44,159.32,156.54Z"/><path class="cls-1" d="M134.28,191.42a12.92,12.92,0,0,0-12.66,0l-.45-.61c.34-.73.49-1.82,1-2.11a11.91,11.91,0,0,1,11.49,0c.55.29.69,1.39,1,2.12Z"/><path class="cls-1" d="M121.17,195.85c.34-.73.48-1.82,1-2.11a11.9,11.9,0,0,1,11.47,0c.57.29.73,1.34.85,2.39-4.45-1.79-8.68-1.85-12.89.33Z"/></svg>