<svg id="Camada_1" data-name="Camada 1" xmlns="http://www.w3.org/2000/svg" viewBox="0 0 32 32"><defs><style>.cls-1{fill:#fff;}</style></defs><title>Prancheta 1.2</title><path d="M.26,7.71l.32.2q6.09,4.17,12.15,8.34a.83.83,0,0,1,.31.48c.13.53.19,1.08.31,1.62a1,1,0,0,0,.27.42.78.78,0,0,0,.32.21c.88.33.94,1.1,1,1.9l-.25-.19c-.83-.7-1.67-1.4-2.49-2.11a1.1,1.1,0,0,1-.32-.42,2.69,2.69,0,0,0-.84-1.08Q5.77,12.55.48,8C.39,7.93.31,7.84.22,7.76Z"/><path d="M32,7.76,30.65,8.93l-9.83,8.43a1.26,1.26,0,0,0-.35.47,2.55,2.55,0,0,1-.78,1c-.81.67-1.61,1.36-2.5,2.11.12-.53.19-1,.31-1.37,0-.12.2-.23.33-.29A1.81,1.81,0,0,0,19,17.48a2,2,0,0,1,1.08-1.69c3.87-2.61,7.72-5.27,11.57-7.91L32,7.71Z"/><path d="M17,26.59c0-.33,0-.66-.07-1v-.14a.84.84,0,0,0-1.67,0c0,.38,0,.76-.08,1.25-.39-.55-.92-.88-.86-1.6s0-1.41,0-2.11c0-.22.05-.34.28-.37a.46.46,0,0,0,.2-.05,3.77,3.77,0,0,1,2.82.06c.19.06.23.15.23.33,0,.82,0,1.65,0,2.47a.47.47,0,0,1-.06.27c-.23.32-.48.62-.72.92Zm-.12-3.36.06-.08c-.05-.09-.06-.23-.13-.26a1.46,1.46,0,0,0-1.43,0c-.07,0-.09.17-.13.26l.06.08A1.57,1.57,0,0,1,16.89,23.23Zm-1.63.55.06.07a1.83,1.83,0,0,1,1.6,0c0-.13,0-.26-.11-.3a1.49,1.49,0,0,0-1.42,0C15.32,23.55,15.3,23.69,15.26,23.78Z"/><path d="M19,27.64V25.49c0-.51,0-1,0-1.54a4.25,4.25,0,0,1,.68-2.88,2.58,2.58,0,0,0,.18-.86l-2.17.92,0-.06.76-.66c.43-.37.86-.75,1.31-1.12a.45.45,0,0,1,.3-.1,7,7,0,0,1,.76.11c.27,1.26-.38,2.33-1,3.5l.63-.24.09.09-.91,2.08.67-.42A8.21,8.21,0,0,1,19,27.64Z"/><path d="M11.5,19.3c.26,0,.51-.09.77-.12a.3.3,0,0,1,.21,0c.72.61,1.43,1.23,2.11,1.91l-2.17-.92a2.93,2.93,0,0,0,.18.87,4.5,4.5,0,0,1,.69,2.86c-.06,1.22,0,2.45-.06,3.7A9.12,9.12,0,0,1,12,24.31l.69.42-.92-2.11.1-.07.63.26C11.9,21.63,11.21,20.57,11.5,19.3Z"/><path d="M15.87,18.5h.47l0-.66h.94s-.17,1.21-.25,1.8l-.24,1.63c0,.17-.58.69-.71.63s-.65-.32-.69-.55c-.23-1.14-.54-3.34-.54-3.34h.94Z"/><path d="M17.58,15.19c-.07-.51-.16-1-.22-1.51,0-.21-.1-.29-.31-.29-.62,0-1.24,0-1.87,0-.22,0-.31.07-.34.3a9.39,9.39,0,0,1-.27,1.48c-.05-.82-.11-1.65-.14-2.47a.69.69,0,0,1,.68-.63h2a.7.7,0,0,1,.66.65c0,.82-.09,1.64-.14,2.46Z"/><path d="M17.75,11.85a3.7,3.7,0,0,0-.66-.16c-.66,0-1.33,0-2,0a2.58,2.58,0,0,0-.62.16c.08-.46.17-1,.28-1.54,0-.05.15-.1.23-.1q1.13,0,2.25,0a.37.37,0,0,1,.26.21C17.6,10.92,17.67,11.42,17.75,11.85Z"/><path d="M20.17,25.34c.1-.23.12-.41.22-.49a4.58,4.58,0,0,0,1.47-3c.07-.44.07-.88.11-1.32,0-.21,0-.35-.26-.39a1.15,1.15,0,0,1-.17-.06c-.6-.22-.6-.22-.48-.91.48.13,1,.24,1.44.38.07,0,.14.16.14.24a14,14,0,0,1-.54,3.46,3.15,3.15,0,0,1-1.63,2Z"/><path d="M11.18,19.15a2.11,2.11,0,0,0,0,.3c.06.31-.06.46-.37.56-.61.19-.61.21-.58.87a6.4,6.4,0,0,0,.59,2.63,10.71,10.71,0,0,0,.88,1.24,1.89,1.89,0,0,1,.26.51,2.35,2.35,0,0,1-1.34-1,5.8,5.8,0,0,1-.88-2.58c-.09-.63-.13-1.26-.18-1.89a.4.4,0,0,1,.18-.31C10.21,19.38,10.67,19.28,11.18,19.15Z"/><path d="M17.27,15.33c-.25.18-.41.39-.6.43a3.51,3.51,0,0,1-1.12,0c-.19,0-.36-.25-.6-.43l.25-1.62H17Z"/><path d="M14.59,15.86c.33,0,.61-.11.8.22,0,.07.18.1.28.1a5.21,5.21,0,0,0,.79,0,2.49,2.49,0,0,0,.45-.2l.73-.22c-.09.61-.16,1.09-.25,1.58a.23.23,0,0,1-.17.13H14.84Z"/><path d="M18.83,15.09c-.21-.29-.42-.57-.62-.87a.36.36,0,0,1,0-.23L19,5s0,0,.06-.06Z"/><path d="M13.25,4.92c.13,1.46.25,2.92.38,4.38L14,13.87a.51.51,0,0,1-.16.49,3.19,3.19,0,0,0-.48.83L13.19,4.92Z"/><path d="M14.13,14.67,14.64,19c-.35-.22-.62-.4-.89-.59a.32.32,0,0,1-.12-.2,6.42,6.42,0,0,1,.16-3.11,3.74,3.74,0,0,1,.22-.45Z"/><path d="M17.57,19l.52-4.31.1,0a5.21,5.21,0,0,1,.24.47,6.42,6.42,0,0,1,.15,3.08.31.31,0,0,1-.11.21C18.2,18.59,17.92,18.76,17.57,19Z"/><path d="M13.07,16.07l-1.26-.85c.4-.52.3-1.39,1.26-1.51Z"/><path d="M20.43,15.23l-1.25.85V13.72c.41.06.7.17.83.56A9.55,9.55,0,0,0,20.43,15.23Z"/><path d="M11,18.84l-1.41.33a2.33,2.33,0,0,1,1.23-1.71c.13,0,.34.12.46.24s0,.24,0,.36S11.14,18.51,11,18.84Z"/><path d="M21.21,18.84c-.14-.34-.27-.58-.35-.84a.41.41,0,0,1,.07-.34c.14-.12.27-.34.52-.18a2.79,2.79,0,0,1,1.21,1.7Z"/><path d="M20.92,20.82a3.06,3.06,0,0,1,.48.12c.11,0,.29.17.28.23s-.07.49-.21.58a9.78,9.78,0,0,1-1.26.58Z"/><path d="M11.29,20.82,12,22.33a11.13,11.13,0,0,1-1.3-.6c-.13-.08-.15-.37-.17-.57s.16-.17.26-.21A2.44,2.44,0,0,1,11.29,20.82Z"/><path d="M14,25.27a7.34,7.34,0,0,1-.41-2.77c.32.05.52.13.51.5,0,.75,0,1.5,0,2.25Z"/><path d="M18.66,22.49a7,7,0,0,1-.39,2.75h-.09c0-.74,0-1.47,0-2.2C18.15,22.68,18.32,22.55,18.66,22.49Z"/><path d="M16.37,26.93h-.5V25h.5Z"/><path d="M10.81,22.83l.61-.3.73,1.64-.42-.38c-.08-.06-.17-.17-.25-.17C11,23.62,11,23.19,10.81,22.83Z"/><path d="M20.09,24.1l.7-1.56s.08,0,.13.05.44.26.42.33c-.07.28-.07.63-.53.69C20.56,23.65,20.33,23.93,20.09,24.1Z"/><path d="M16.67,28.09H15.55c.09-.29.16-.57.26-.82a.36.36,0,0,1,.28-.15c.1,0,.27.06.3.14A6.21,6.21,0,0,1,16.67,28.09Z"/><path d="M15.61,25.28a4.77,4.77,0,0,1-.17,2.4A9.22,9.22,0,0,1,15.61,25.28Z"/><path d="M16.77,27.64a4.85,4.85,0,0,1-.18-2.36A8.13,8.13,0,0,1,16.77,27.64Z"/><path d="M14.85,21.54c-.77.48-1.09-.07-1.42-.6Z"/><path d="M18.74,21c-.48.84-.48.84-1.36.58Z"/><path d="M12.2,18.94c-.34.21-.58.17-.76-.07s-.14-.48.13-.77c0,.26,0,.49.08.62S12,18.85,12.2,18.94Z"/><path d="M20,18.9c.54,0,.75-.24.58-.78.32.27.36.51.21.74S20.36,19.13,20,18.9Z"/><path class="cls-1" d="M16.89,23.23a1.57,1.57,0,0,0-1.57,0l-.06-.08c0-.09.06-.23.13-.26a1.46,1.46,0,0,1,1.43,0c.07,0,.08.17.13.26Z"/><path class="cls-1" d="M15.26,23.78c0-.09.06-.23.13-.27a1.49,1.49,0,0,1,1.42,0c.07,0,.1.17.11.3a1.83,1.83,0,0,0-1.6,0Z"/></svg>