<svg id="Camada_1" data-name="Camada 1" xmlns="http://www.w3.org/2000/svg" viewBox="0 0 256 256"><defs><style>.cls-1{fill:#f1e433;}.cls-2{fill:#c23334;}.cls-3{fill:#399742;}.cls-4{fill:#b52c2e;}.cls-5{fill:#354591;}.cls-6{fill:#e9e338;}.cls-7{fill:#fff;}</style></defs><title>Prancheta 2.3</title><path class="cls-1" d="M.35,66.42c.86.55,1.74,1.07,2.58,1.64q49,33.6,98,67.27a6.85,6.85,0,0,1,2.5,3.83c1,4.32,1.5,8.74,2.45,13.07a8.5,8.5,0,0,0,2.18,3.41,6.81,6.81,0,0,0,2.63,1.74c7.09,2.63,7.54,8.85,8.38,15.29-.86-.62-1.5-1-2.07-1.51-6.69-5.66-13.41-11.3-20-17a9.12,9.12,0,0,1-2.56-3.37c-1.42-3.63-3.87-6.26-6.79-8.75Q44.78,105.49,2.12,68.83c-.73-.63-1.41-1.3-2.12-2Z"/><path class="cls-1" d="M256.28,66.9q-5.43,4.68-10.86,9.36-39.64,34-79.26,68a10.62,10.62,0,0,0-2.9,3.83,20.12,20.12,0,0,1-6.26,8.09c-6.56,5.35-12.95,10.91-20.12,17,.9-4.25,1.47-7.7,2.45-11,.29-1,1.64-1.9,2.71-2.37,6.35-2.78,9.64-7.49,9.6-14.47,0-6.39,3.44-10.12,8.66-13.64,31.26-21.06,62.26-42.51,93.35-63.82.74-.5,1.54-.92,2.31-1.38Z"/><path class="cls-2" d="M135.44,218.74c-.2-2.68-.39-5.35-.58-8,0-.38,0-.77-.07-1.15-.37-3.88-2.94-6.12-7-6.11a6.39,6.39,0,0,0-6.38,6.18c-.24,3.05-.41,6.1-.68,10.08-3.11-4.5-7.42-7.1-6.94-12.92.46-5.64.16-11.35.06-17,0-1.75.47-2.73,2.25-2.95a6.13,6.13,0,0,0,1.68-.44c7.65-3.37,15.16-2,22.7.49a2.32,2.32,0,0,1,1.88,2.67c-.06,6.64,0,13.28,0,19.93a4,4,0,0,1-.45,2.19c-1.86,2.53-3.85,5-5.79,7.42Zm-1-27.16.45-.61c-.33-.73-.46-1.83-1-2.12a12,12,0,0,0-11.5,0c-.56.3-.71,1.39-1,2.12l.45.61A12.93,12.93,0,0,1,134.42,191.58ZM121.31,196l.45.6c4.22-2.18,8.45-2.12,12.9-.33-.11-1.05-.28-2.11-.84-2.4a11.94,11.94,0,0,0-11.48,0C121.78,194.19,121.64,195.29,121.31,196Z"/><path class="cls-3" d="M151.41,227.15V209.87c0-4.14.29-8.3-.06-12.42-.7-8.41.69-16.16,5.55-23.28,1.09-1.6.89-4.09,1.44-6.95l-17.5,7.47-.34-.53,6.11-5.28c3.5-3,7-6.07,10.54-9a3.85,3.85,0,0,1,2.45-.85c2,.14,4,.57,6.1.89,2.2,10.15-3,18.8-7.73,28.28l5.31-2.09.6.62-7.42,17,5.45-3.33C159.8,210.2,157.26,219.22,151.41,227.15Z"/><path class="cls-3" d="M91,159.9c2.09-.34,4.11-.7,6.14-1a2.56,2.56,0,0,1,1.76.36c5.79,4.92,11.53,9.89,17,15.39l-17.5-7.45c.55,2.86.37,5.38,1.48,7,4.73,7.06,5.91,14.68,5.51,23-.48,9.89-.11,19.83-.47,29.86-5.52-7.92-8-17-10.21-26.84l5.54,3.36-7.43-17,.86-.5,5,2.06C94.2,178.74,88.64,170.17,91,159.9Z"/><path class="cls-4" d="M126.27,154.06H130l.33-6.78h7.55s-1.36,10.66-2,15.39c-.63,4.38-1.25,8.76-1.92,13.14-.21,1.4-4.7,5.59-5.71,5.05-2.11-1.14-5.23-2.59-5.59-4.38-1.85-9.22-4.37-28.07-4.37-28.07h7.61Z"/><path class="cls-5" d="M140,126.75c-.6-4.06-1.29-8.11-1.78-12.19-.2-1.69-.83-2.3-2.54-2.27-5,.09-10,.11-15,0-1.83,0-2.53.57-2.73,2.4a77.64,77.64,0,0,1-2.24,11.94c-.39-6.64-.87-13.28-1.11-19.93-.09-2.63,2.81-5.08,5.48-5.09q8.1,0,16.19,0c2.59,0,5.46,2.6,5.36,5.21-.25,6.64-.72,13.26-1.1,19.89Z"/><path class="cls-4" d="M141.35,99.87c-1.9-.5-3.58-1.27-5.27-1.32-5.39-.17-10.79-.16-16.17,0-1.61,0-3.19.81-5,1.3.66-3.72,1.39-8.07,2.28-12.39.08-.4,1.21-.83,1.85-.84,6.07-.06,12.13-.09,18.2,0a2.77,2.77,0,0,1,2,1.66C140.12,92.32,140.74,96.39,141.35,99.87Z"/><path class="cls-6" d="M160.85,208.66c.82-1.88,1-3.33,1.81-4,7.64-6.36,10.37-15.08,11.86-24.36.56-3.5.57-7.09.88-10.63.15-1.67-.33-2.8-2.1-3.14a10.07,10.07,0,0,1-1.36-.49c-4.84-1.72-4.84-1.72-3.91-7.3,3.91,1,7.81,2,11.66,3.08a2.34,2.34,0,0,1,1.1,1.91c-.62,9.42-1.34,18.83-4.34,27.88-2.32,7-6.22,12.78-13.11,16.08C162.83,207.93,162.28,208.1,160.85,208.66Z"/><path class="cls-6" d="M88.4,158.68a22.15,22.15,0,0,0,.14,2.44c.46,2.5-.49,3.75-3,4.53-4.92,1.55-4.91,1.72-4.64,7,.37,7.35,1.35,14.65,4.74,21.25,1.84,3.61,4.75,6.67,7.13,10a13.48,13.48,0,0,1,2,4.1A19.17,19.17,0,0,1,84,200.26C79.62,194,78,186.77,77,179.41c-.74-5-1.12-10.13-1.47-15.21a3,3,0,0,1,1.4-2.47C80.56,160.58,84.3,159.73,88.4,158.68Z"/><path class="cls-4" d="M137.46,128.69c-2,1.48-3.28,3.19-4.83,3.45a27.86,27.86,0,0,1-9,0c-1.55-.25-2.87-2-4.86-3.44.58-3.74,1.3-8.34,2-13h14.65C136.16,120.34,136.88,125,137.46,128.69Z"/><path class="cls-5" d="M115.85,132.16c2.67,0,5-.88,6.5,1.82.3.53,1.47.75,2.26.79a35.1,35.1,0,0,0,6.32,0c1.26-.16,2.39-1.11,3.64-1.55,1.67-.6,3.4-1.05,5.9-1.8-.75,4.88-1.32,8.82-2,12.73a1.81,1.81,0,0,1-1.37,1.07c-6.32.07-12.65,0-19.21,0C117.2,140.87,116.56,136.73,115.85,132.16Z"/><path class="cls-1" d="M150.09,126c-1.72-2.35-3.44-4.63-5-7a3.18,3.18,0,0,1-.21-1.91q3.09-36.3,6.25-72.59c0-.18.12-.34.48-.51C151.08,71.38,150.58,98.79,150.09,126Z"/><path class="cls-1" d="M105.09,43.93q1.53,17.66,3,35.32,1.59,18.44,3.18,36.87a4.16,4.16,0,0,1-1.36,3.95c-1.62,1.56-2.37,4-3.8,6.7-.52-27.91-1-55.36-1.53-82.81Z"/><path class="cls-3" d="M112.14,122.6c1.36,11.38,2.72,22.77,4.16,34.85-2.8-1.84-5-3.26-7.23-4.8a2.73,2.73,0,0,1-1-1.63c-1.41-8.44-1.3-16.83,1.31-25.06a25.69,25.69,0,0,1,1.81-3.64Z"/><path class="cls-3" d="M139.9,157.41c1.46-12.1,2.82-23.44,4.18-34.77l.87-.3a28.35,28.35,0,0,1,1.87,3.79c2.63,8.16,2.65,16.48,1.27,24.85a2.72,2.72,0,0,1-.93,1.66C145,154.17,142.7,155.59,139.9,157.41Z"/><path class="cls-5" d="M104,133.87,93.85,127c3.21-4.2,2.43-11.15,10.14-12.13Z"/><path class="cls-5" d="M162.61,127.1,152.54,134v-19c3.31.47,5.64,1.39,6.69,4.54C160.08,122,161.38,124.37,162.61,127.1Z"/><path class="cls-2" d="M87.1,156.18l-11.36,2.68c.27-4.91,5.72-12.74,9.88-13.75,1.08-.26,2.76.92,3.76,1.87.48.47.23,2,0,2.91C88.82,151.75,88.06,153.55,87.1,156.18Z"/><path class="cls-2" d="M169.25,156.22c-1.15-2.71-2.14-4.7-2.79-6.79a3.16,3.16,0,0,1,.57-2.71c1.09-1,2.14-2.73,4.15-1.46,5,3.12,8.06,7.55,9.8,13.73Z"/><path d="M166.91,172.16a25.37,25.37,0,0,1,3.93,1c.88.38,2.28,1.33,2.21,1.86-.23,1.65-.58,4-1.72,4.68-3,1.9-6.52,3.09-10.1,4.69C163.07,180.42,164.9,176.5,166.91,172.16Z"/><path d="M89.29,172.15c2,4.21,3.8,8.14,5.69,12.19-3.69-1.63-7.28-2.88-10.46-4.8-1-.63-1.22-3-1.35-4.62,0-.53,1.23-1.39,2-1.73A29,29,0,0,1,89.29,172.15Z"/><path class="cls-6" d="M110.68,208.05c-2.87-7.07-3.18-14.54-3.28-22.3,2.57.38,4.2,1,4.09,4-.2,6-.06,12.08-.06,18.12Z"/><path class="cls-6" d="M148.72,185.67c.06,7.7-.31,15.12-3.13,22.18l-.79,0c0-5.91.16-11.84-.07-17.74C144.62,187.15,146,186.15,148.72,185.67Z"/><path class="cls-5" d="M130,221.81h-3.39V206H130Z"/><path d="M85.41,188.37,90.3,186c1.92,4.3,3.77,8.42,5.92,13.24-1.45-1.32-2.39-2.2-3.38-3-.65-.55-1.38-1.44-2.07-1.44C86.52,194.74,86.59,191.31,85.41,188.37Z"/><path d="M160.23,198.61c1.89-4.17,3.72-8.22,5.66-12.53a3,3,0,0,1,1.05.38c1.22.87,3.52,2.11,3.38,2.69-.57,2.26-.6,5-4.24,5.57C164,195,162.2,197.23,160.23,198.61Z"/><path class="cls-2" d="M132.63,230.84h-9c.73-2.34,1.28-4.55,2.15-6.62a2.73,2.73,0,0,1,2.19-1.17c.87,0,2.2.48,2.49,1.13A59.75,59.75,0,0,1,132.63,230.84Z"/><path class="cls-3" d="M124.09,208.15c.19,6.49,1.81,13.09-1.38,19.34C122.73,221,122.43,214.51,124.09,208.15Z"/><path class="cls-3" d="M133.49,227.21C130.33,221,132,214.52,132,208.12,134.13,214.35,133.21,220.84,133.49,227.21Z"/><path d="M118,178c-6.27,3.85-8.83-.6-11.5-4.82Z"/><path d="M149.36,173.32c-3.87,6.75-3.92,6.77-11,4.64Z"/><path d="M96.59,157c-2.74,1.7-4.67,1.32-6.12-.58s-1.14-3.85,1-6.17c.2,2.1-.12,3.91.62,4.93S94.69,156.31,96.59,157Z"/><path d="M159.49,156.66c4.36,0,6.07-1.92,4.73-6.25,2.57,2.19,2.9,4.12,1.63,5.93S162.41,158.56,159.49,156.66Z"/><path class="cls-7" d="M134.42,191.58a12.93,12.93,0,0,0-12.67,0l-.45-.61c.34-.73.49-1.82,1-2.12a12,12,0,0,1,11.5,0c.56.29.69,1.39,1,2.12Z"/><path class="cls-7" d="M121.31,196c.33-.72.47-1.82,1-2.11a11.94,11.94,0,0,1,11.48,0c.56.29.73,1.35.84,2.4-4.45-1.79-8.68-1.85-12.9.33Z"/></svg>