<svg id="Camada_1" data-name="Camada 1" xmlns="http://www.w3.org/2000/svg" viewBox="0 0 841.89 595.28"><defs><style>.cls-1{fill:#fff;}.cls-2,.cls-9{fill:#211915;}.cls-3{fill:#f1e433;}.cls-4{fill:#c23334;}.cls-5{fill:#399742;}.cls-6{fill:#b52c2e;}.cls-7{fill:#354591;}.cls-8{fill:#e9e338;}.cls-9{font-size:18px;font-family:MyriadPro-Regular, Myriad Pro;}.cls-10{letter-spacing:-0.01em;}.cls-11{letter-spacing:-0.01em;}.cls-12{letter-spacing:0em;}.cls-13{letter-spacing:0.01em;}.cls-14{letter-spacing:-0.01em;}.cls-15{letter-spacing:-0.01em;}.cls-16{letter-spacing:0em;}.cls-17{letter-spacing:-0.01em;}.cls-18{letter-spacing:0em;}.cls-19{letter-spacing:0em;}.cls-20{letter-spacing:-0.04em;}.cls-21{letter-spacing:-0.01em;}.cls-22{letter-spacing:0em;}.cls-23{letter-spacing:-0.01em;}.cls-24{letter-spacing:-0.01em;}.cls-25{letter-spacing:0em;}.cls-26{letter-spacing:0em;}.cls-27{letter-spacing:-0.02em;}.cls-28{letter-spacing:0em;}.cls-29{letter-spacing:0em;}.cls-30{letter-spacing:-0.01em;}.cls-31{letter-spacing:-0.01em;}.cls-32{letter-spacing:-0.08em;}.cls-33{letter-spacing:-0.03em;}.cls-34{letter-spacing:-0.09em;}.cls-35{letter-spacing:-0.07em;}.cls-36{letter-spacing:0.01em;}.cls-37{letter-spacing:-0.02em;}.cls-38{letter-spacing:-0.15em;}.cls-39{letter-spacing:0em;}.cls-40{fill:#262321;}.cls-41{fill:#b3a73e;}.cls-42{fill:#323e79;}.cls-43{fill:#8e3330;}.cls-44{fill:#292622;}.cls-45{fill:#7d7438;}.cls-46{fill:#2e355c;}.cls-47{fill:#6a312d;}.cls-48{fill:#231f1c;}.cls-49{fill:#544e2d;}.cls-50{fill:#262a40;}.cls-51{fill:#4c2925;}.cls-52{fill:#1c1815;}.cls-53{fill:#332f1f;}.cls-54{fill:#1c1d27;}.cls-55{fill:#301d1b;}.cls-56{fill:#040006;}.cls-57{fill:none;stroke:#c23334;stroke-width:15px;}</style></defs><title>Prancheta 0</title><rect class="cls-1" x="1" y="1" width="307.04" height="235.87"/><path d="M64.69,27.92c.64.41,1.3.8,1.93,1.23q36.78,25.23,73.54,50.5A5.15,5.15,0,0,1,142,82.52c.75,3.24,1.13,6.56,1.84,9.81a6.34,6.34,0,0,0,1.64,2.56,5.13,5.13,0,0,0,2,1.31c5.31,2,5.65,6.64,6.28,11.47-.64-.47-1.12-.77-1.55-1.13-5-4.25-10.06-8.49-15.05-12.79a7,7,0,0,1-1.93-2.53,16.55,16.55,0,0,0-5.09-6.57Q98,57.24,66,29.73c-.54-.47-1.06-1-1.59-1.46Z"/><path d="M256.78,28.28c-2.71,2.34-5.42,4.7-8.15,7q-29.74,25.5-59.49,51A8.07,8.07,0,0,0,187,89.21a15.11,15.11,0,0,1-4.69,6.07c-4.93,4-9.72,8.19-15.11,12.75.68-3.19,1.11-5.78,1.84-8.28A3.7,3.7,0,0,1,171,98c4.77-2.08,7.23-5.61,7.2-10.86,0-4.79,2.59-7.6,6.5-10.23C208.2,61.07,231.47,45,254.81,29c.56-.37,1.16-.69,1.73-1Z"/><path d="M166.08,142.25c-.15-2-.29-4-.43-6,0-.29,0-.58-.05-.87-.28-2.91-2.21-4.59-5.27-4.59a4.79,4.79,0,0,0-4.78,4.64c-.19,2.29-.31,4.59-.51,7.57-2.34-3.38-5.58-5.33-5.22-9.7a126.66,126.66,0,0,0,.05-12.78c0-1.31.35-2,1.69-2.21a4.87,4.87,0,0,0,1.26-.33c5.74-2.54,11.38-1.53,17,.36a1.75,1.75,0,0,1,1.41,2c-.05,5,0,10,0,15a2.89,2.89,0,0,1-.34,1.65c-1.39,1.9-2.89,3.72-4.34,5.57Zm-.76-20.38.34-.46c-.25-.55-.35-1.38-.77-1.59a8.92,8.92,0,0,0-8.63,0c-.42.22-.53,1-.79,1.58l.34.47A9.68,9.68,0,0,1,165.32,121.87Zm-9.85,3.32.34.45a11.06,11.06,0,0,1,9.69-.25c-.09-.79-.21-1.58-.63-1.8a9,9,0,0,0-8.62,0C155.83,123.83,155.72,124.65,155.47,125.19Z"/><path d="M178.18,148.56v-13c0-3.11.21-6.24-.05-9.33-.52-6.31.52-12.13,4.16-17.47.82-1.2.67-3.07,1.08-5.22l-13.13,5.61-.25-.4,4.58-4c2.63-2.27,5.24-4.56,7.91-6.77a2.92,2.92,0,0,1,1.84-.64c1.52.1,3,.43,4.58.67,1.65,7.62-2.28,14.11-5.8,21.22l3.83-1.5.53.56L182,131l4.08-2.5C184.48,135.85,182.57,142.62,178.18,148.56Z"/><path d="M132.72,98.08c1.58-.25,3.09-.52,4.61-.71a1.9,1.9,0,0,1,1.32.28c4.35,3.69,8.66,7.42,12.75,11.55l-13.14-5.59c.42,2.14.28,4,1.12,5.28,3.55,5.3,4.43,11,4.13,17.27-.36,7.43-.08,14.89-.35,22.42-4.14-6-6-12.75-7.66-20.15l4.15,2.52-5.57-12.77.65-.38,3.76,1.55C135.13,112.23,131,105.8,132.72,98.08Z"/><path d="M159.14,93.29H162c.08-1.29.16-2.57.25-4h5.67s-1,7.33-1.52,10.88c-.47,3.29-.94,6.57-1.44,9.86-.16,1-3.53,4.19-4.29,3.79-1.58-.86-3.93-1.94-4.2-3.29-1.39-6.92-3.27-20.24-3.27-20.24h5.68Z"/><path d="M169.53,73.21c-.45-3-1-6.09-1.33-9.15-.16-1.27-.63-1.73-1.92-1.71-3.76.07-7.52.08-11.28,0-1.38,0-1.9.43-2.06,1.8a58.44,58.44,0,0,1-1.67,9c-.29-5-.66-10-.84-15-.07-2,2.11-3.82,4.12-3.82q6.07,0,12.15,0c1.94,0,4.1,2,4,3.92-.19,5-.54,9.95-.83,14.92Z"/><path d="M170.52,53a19.76,19.76,0,0,0-4-1c-4-.13-8.09-.12-12.14,0a18.46,18.46,0,0,0-3.77,1c.5-2.8,1-6.06,1.71-9.3.06-.31.91-.63,1.39-.63,4.55,0,9.11-.07,13.66,0a2.06,2.06,0,0,1,1.53,1.24C169.6,47.36,170.06,50.42,170.52,53Z"/><path d="M185.16,134.68c.61-1.4.74-2.49,1.36-3,5.73-4.77,7.78-11.32,8.9-18.29.42-2.63.42-5.32.66-8,.11-1.25-.25-2.1-1.58-2.35a7.79,7.79,0,0,1-1-.37c-3.64-1.3-3.64-1.3-2.94-5.48,2.94.75,5.87,1.46,8.76,2.31a1.78,1.78,0,0,1,.82,1.43c-.46,7.07-1,14.14-3.25,20.93-1.75,5.28-4.67,9.59-9.85,12.07C186.64,134.13,186.23,134.26,185.16,134.68Z"/><path d="M130.78,97.17a15.62,15.62,0,0,0,.1,1.83c.35,1.88-.37,2.81-2.25,3.41-3.7,1.16-3.69,1.28-3.49,5.25.28,5.51,1,11,3.56,16,1.39,2.7,3.57,5,5.35,7.51a10.12,10.12,0,0,1,1.54,3.08,14.43,14.43,0,0,1-8.09-5.82c-3.31-4.68-4.5-10.12-5.31-15.65-.55-3.78-.84-7.6-1.1-11.42a2.28,2.28,0,0,1,1-1.85C124.89,98.6,127.7,98,130.78,97.17Z"/><path d="M167.6,74.07c-1.49,1.11-2.47,2.39-3.63,2.58a21.07,21.07,0,0,1-6.77,0c-1.16-.19-2.15-1.48-3.64-2.59.43-2.8,1-6.26,1.52-9.79h11C166.62,67.8,167.16,71.26,167.6,74.07Z"/><path d="M151.38,77.26c2,0,3.74-.65,4.88,1.37.22.4,1.1.57,1.69.6a26.9,26.9,0,0,0,4.75,0A15.26,15.26,0,0,0,165.43,78c1.25-.45,2.55-.79,4.42-1.35-.56,3.67-1,6.62-1.5,9.56a1.36,1.36,0,0,1-1,.8c-4.74,0-9.49,0-14.42,0C152.39,83.81,151.91,80.7,151.38,77.26Z"/><path d="M177.08,72.62c-1.29-1.77-2.59-3.47-3.79-5.25a2.33,2.33,0,0,1-.15-1.43q2.33-27.24,4.69-54.49c0-.13.09-.25.36-.38C177.82,31.64,177.45,52.21,177.08,72.62Z"/><path d="M143.3,11q1.15,13.26,2.29,26.51c.8,9.22,1.57,18.45,2.38,27.68a3.08,3.08,0,0,1-1,3c-1.22,1.17-1.78,3-2.86,5-.38-20.95-.76-41.56-1.14-62.16Z"/><path d="M148.59,70.09c1,8.54,2,17.09,3.13,26.16-2.11-1.38-3.8-2.45-5.43-3.6a2,2,0,0,1-.72-1.23,39.63,39.63,0,0,1,1-18.8,18.87,18.87,0,0,1,1.36-2.74Z"/><path d="M169.43,96.22c1.09-9.09,2.12-17.59,3.14-26.1l.65-.23a20.32,20.32,0,0,1,1.4,2.85,39,39,0,0,1,1,18.65,2.06,2.06,0,0,1-.7,1.25C173.23,93.79,171.53,94.85,169.43,96.22Z"/><path d="M142.18,78.55l-7.62-5.16c2.42-3.15,1.83-8.36,7.62-9.1Z"/><path d="M186.73,73.46l-7.55,5.15V64.34c2.48.35,4.23,1,5,3.4A62.5,62.5,0,0,0,186.73,73.46Z"/><path d="M129.8,95.3l-8.53,2c.2-3.69,4.3-9.56,7.42-10.33.8-.19,2.07.7,2.82,1.41.36.35.17,1.48,0,2.18C131.09,92,130.52,93.32,129.8,95.3Z"/><path d="M191.46,95.33c-.86-2-1.61-3.53-2.09-5.1a2.32,2.32,0,0,1,.43-2c.81-.74,1.6-2.06,3.11-1.1a16.77,16.77,0,0,1,7.35,10.31Z"/><path d="M189.71,107.29a18.59,18.59,0,0,1,2.94.74c.67.29,1.72,1,1.66,1.4-.17,1.24-.43,3-1.29,3.51a62.58,62.58,0,0,1-7.58,3.52C186.82,113.49,188.19,110.54,189.71,107.29Z"/><path d="M131.44,107.28l4.28,9.15a68.61,68.61,0,0,1-7.85-3.6c-.78-.48-.92-2.26-1-3.47,0-.4.92-1,1.54-1.3A22.17,22.17,0,0,1,131.44,107.28Z"/><path d="M147.5,134.22c-2.16-5.3-2.39-10.9-2.46-16.73,1.92.29,3.15.74,3.07,3-.16,4.53-.05,9.07-.05,13.61Z"/><path d="M176.05,117.43c0,5.78-.23,11.35-2.35,16.65l-.59,0c0-4.44.12-8.88-.05-13.32C173,118.54,174,117.79,176.05,117.43Z"/><path d="M162.18,144.29h-3v-12h3Z"/><path d="M128.53,119.45l3.67-1.8c1.45,3.22,2.83,6.32,4.45,9.93-1.1-1-1.8-1.65-2.54-2.27-.49-.41-1-1.08-1.56-1.08C129.36,124.24,129.41,121.66,128.53,119.45Z"/><path d="M184.69,127.14c1.42-3.12,2.79-6.17,4.25-9.4a2,2,0,0,1,.78.28c.92.65,2.65,1.59,2.54,2-.43,1.69-.44,3.75-3.18,4.17C187.52,124.46,186.17,126.11,184.69,127.14Z"/><path d="M164,151.29H157.2c.54-1.75,1-3.41,1.61-5a2.07,2.07,0,0,1,1.64-.88c.65,0,1.66.37,1.87.85A45.77,45.77,0,0,1,164,151.29Z"/><path d="M157.57,134.3c.13,4.88,1.35,9.83-1,14.52C156.55,144,156.32,139.08,157.57,134.3Z"/><path d="M164.62,148.61c-2.37-4.63-1.11-9.53-1.12-14.33C165.1,139,164.41,143.83,164.62,148.61Z"/><path d="M153,111.67c-4.7,2.9-6.63-.45-8.63-3.61Z"/><path d="M176.53,108.16c-2.9,5.07-2.94,5.08-8.26,3.48Z"/><path d="M136.92,95.93c-2.06,1.28-3.5,1-4.59-.43s-.86-2.89.78-4.63c.16,1.57-.09,2.93.47,3.69S135.49,95.39,136.92,95.93Z"/><path d="M184.14,95.66c3.26,0,4.55-1.45,3.54-4.69,1.93,1.64,2.18,3.09,1.23,4.45S186.33,97.08,184.14,95.66Z"/><path class="cls-1" d="M165.32,121.87a9.68,9.68,0,0,0-9.51,0l-.34-.47c.26-.54.37-1.36.79-1.58a8.92,8.92,0,0,1,8.63,0c.42.21.52,1,.77,1.59Z"/><path class="cls-1" d="M155.47,125.19c.25-.54.36-1.36.78-1.58a9,9,0,0,1,8.62,0c.42.22.54,1,.63,1.8a11.06,11.06,0,0,0-9.69.25Z"/><path class="cls-2" d="M11.18,187.29V171.38a15.54,15.54,0,0,1,9.45-14.44,15.54,15.54,0,0,1,12.07,0,15.56,15.56,0,0,1,8.25,8.2,14.76,14.76,0,0,1,1.23,6v16.16h-5V169.43a5.05,5.05,0,0,0-.65-2.46c-2.38-4.19-5.68-6.29-9.87-6.29s-7.42,2.08-9.82,6.26a5,5,0,0,0-.66,2.47v17.88Z"/><path class="cls-2" d="M35.18,187.29h-5V171.13A4.1,4.1,0,0,0,29,168.2a3.9,3.9,0,0,0-5.63,0,4.18,4.18,0,0,0-1.18,2.93v16.16h-5V171.13a8.78,8.78,0,0,1,2.61-6.4A8.68,8.68,0,0,1,26.18,162a8.58,8.58,0,0,1,6.38,2.69,8.79,8.79,0,0,1,2.62,6.4Z"/><path class="cls-2" d="M69.18,182.87a13.53,13.53,0,0,0-2.45-8.13,7.36,7.36,0,0,0-6.07-3.45H52.18v22h-4v-26h12.5a10.16,10.16,0,0,1,5.17,1.38A13,13,0,0,1,70,172.43a17.13,17.13,0,0,1,2.35,4.75,18.57,18.57,0,0,1,.87,5.73v10.38h-4Z"/><path class="cls-2" d="M60.68,173.29a6.42,6.42,0,0,1,5.25,3,12.39,12.39,0,0,1,2.25,7.49v10.48h-4V183.73a8.48,8.48,0,0,0-1.49-5.12,2.7,2.7,0,0,0-2-1.32h-3.5v17h-4v-21Z"/><polygon class="cls-2" points="89.18 167.29 89.18 193.29 85.18 193.29 85.18 171.29 84.18 171.29 84.18 193.29 80.18 193.29 80.18 167.29 89.18 167.29"/><polygon class="cls-2" points="22.18 207.29 22.18 224.29 11.18 224.29 11.18 192.29 16.18 192.29 16.18 218.29 17.18 218.29 17.18 202.29 35.18 202.29 35.18 218.29 36.18 218.29 36.18 192.29 41.18 192.29 41.18 224.29 30.18 224.29 30.18 207.29 22.18 207.29"/><polygon class="cls-2" points="22.18 192.29 22.18 196.29 30.18 196.29 30.18 192.29 35.18 192.29 35.18 201.29 17.18 201.29 17.18 192.29 22.18 192.29"/><polygon class="cls-2" points="57.18 223.29 48.18 223.29 48.18 197.29 52.18 197.29 52.18 219.29 53.18 219.29 53.18 197.29 57.18 197.29 57.18 223.29"/><polygon class="cls-2" points="73.18 197.29 73.18 223.29 64.18 223.29 64.18 197.29 68.18 197.29 68.18 219.29 69.18 219.29 69.18 197.29 73.18 197.29"/><polygon class="cls-2" points="89.18 223.29 80.18 223.29 80.18 197.29 84.18 197.29 84.18 219.29 85.18 219.29 85.18 197.29 89.18 197.29 89.18 223.29"/><path class="cls-2" d="M142.18,177a15.88,15.88,0,0,0-2.91-9.61q-3-4.08-7.19-4.08h-28.9v26h-4v-31H132.5a11.82,11.82,0,0,1,6.08,1.65,15.31,15.31,0,0,1,4.82,4.48,20.27,20.27,0,0,1,2.75,5.66,22.25,22.25,0,0,1,1,6.84v12.37h-5Z"/><path class="cls-2" d="M113.68,164.29q3.43,0,5.95,3.46a14.25,14.25,0,0,1,2.55,8.56v12h-4v-11.8a9.3,9.3,0,0,0-1.71-5.73,3.09,3.09,0,0,0-2.29-1.47h-4v19h-5v-24Z"/><path class="cls-2" d="M132.68,164.29q3.48,0,5.95,3.46a14.25,14.25,0,0,1,2.55,8.56v12h-5v-11.8a9.3,9.3,0,0,0-1.71-5.73,3,3,0,0,0-2.29-1.47h-5.27a20.58,20.58,0,0,1,1.27,7.2v11.8h-4v-12a15.51,15.51,0,0,0-2.82-9.35,10.69,10.69,0,0,0-2.75-2.67Z"/><path class="cls-2" d="M156.18,193.29v-13a12.88,12.88,0,0,1,1-5.12,12.62,12.62,0,0,1,6.63-6.72,12.36,12.36,0,0,1,9.74,0,12.66,12.66,0,0,1,6.65,6.72,12.36,12.36,0,0,1,1,4.92v13.25h-4V178.6a3.88,3.88,0,0,0-.43-1.8q-2.91-5.34-8.09-5.34-5,0-7.94,5.12a4.1,4.1,0,0,0-.54,2v14.69Z"/><path class="cls-2" d="M176.18,193.29h-4V180a3.27,3.27,0,0,0-1-2.41,3.58,3.58,0,0,0-4.92,0,3.3,3.3,0,0,0-1,2.41v13.25h-4V180a7.13,7.13,0,0,1,2.18-5.26,7.31,7.31,0,0,1,5.32-2.2,7.21,7.21,0,0,1,5.31,2.2,7.14,7.14,0,0,1,2.19,5.26Z"/><polygon class="cls-2" points="197.18 193.29 193.18 193.29 193.18 171.29 192.18 171.29 192.18 193.29 188.18 193.29 188.18 167.29 197.18 167.29 197.18 193.29"/><polygon class="cls-2" points="240.08 168.29 238.96 177.29 231.18 177.29 231.18 194.29 227.18 194.29 227.18 173.29 235.44 173.29 235.61 172.29 218.19 172.29 218.32 173.29 226.18 173.29 226.18 194.29 222.18 194.29 222.18 177.29 214.36 177.29 213.24 168.29 240.08 168.29"/><path class="cls-2" d="M246.18,193.29v-13a12.88,12.88,0,0,1,1-5.12,12.62,12.62,0,0,1,6.63-6.72,12.36,12.36,0,0,1,9.74,0,12.66,12.66,0,0,1,6.65,6.72,12.36,12.36,0,0,1,1,4.92v13.25h-4V178.6a3.88,3.88,0,0,0-.43-1.8q-2.91-5.34-8.09-5.34-5,0-7.94,5.12a4.1,4.1,0,0,0-.54,2v14.69Z"/><path class="cls-2" d="M266.18,193.29h-4V180a3.27,3.27,0,0,0-1-2.41,3.58,3.58,0,0,0-4.92,0,3.3,3.3,0,0,0-1,2.41v13.25h-4V180a7.13,7.13,0,0,1,2.18-5.26,7.31,7.31,0,0,1,5.32-2.2,7.21,7.21,0,0,1,5.31,2.2,7.14,7.14,0,0,1,2.19,5.26Z"/><polygon class="cls-2" points="110.18 223.29 99.18 223.29 99.18 193.29 104.18 193.29 104.18 219.29 105.18 219.29 105.18 193.29 110.18 193.29 110.18 223.29"/><polygon class="cls-2" points="128.18 193.29 128.18 223.29 117.18 223.29 117.18 193.29 122.18 193.29 122.18 219.29 123.18 219.29 123.18 193.29 128.18 193.29"/><polygon class="cls-2" points="147.18 193.29 147.18 223.29 136.18 223.29 136.18 193.29 141.18 193.29 141.18 219.29 142.18 219.29 142.18 193.29 147.18 193.29"/><polygon class="cls-2" points="165.18 210.29 165.18 223.29 156.18 223.29 156.18 197.29 160.18 197.29 160.18 219.29 161.18 219.29 161.18 206.29 176.18 206.29 176.18 219.29 177.18 219.29 177.18 197.29 181.18 197.29 181.18 223.29 172.18 223.29 172.18 210.29 165.18 210.29"/><polygon class="cls-2" points="165.18 198.29 165.18 201.29 172.18 201.29 172.18 198.29 176.18 198.29 176.18 205.29 161.18 205.29 161.18 198.29 165.18 198.29"/><polygon class="cls-2" points="213.92 223.29 188.18 223.29 188.18 197.29 192.18 197.29 192.18 219.29 209.39 219.29 209.25 218.29 193.18 218.29 193.18 197.29 197.18 197.29 197.18 214.29 212.8 214.29 213.92 223.29"/><polygon class="cls-2" points="231.18 223.29 222.18 223.29 222.18 197.29 226.18 197.29 226.18 219.29 227.18 219.29 227.18 197.29 231.18 197.29 231.18 223.29"/><polygon class="cls-2" points="255.18 210.29 255.18 223.29 246.18 223.29 246.18 197.29 250.18 197.29 250.18 219.29 251.18 219.29 251.18 206.29 266.18 206.29 266.18 219.29 267.18 219.29 267.18 197.29 271.18 197.29 271.18 223.29 262.18 223.29 262.18 210.29 255.18 210.29"/><polygon class="cls-2" points="255.18 198.29 255.18 201.29 262.18 201.29 262.18 198.29 266.18 198.29 266.18 205.29 251.18 205.29 251.18 198.29 255.18 198.29"/><path class="cls-2" d="M295.18,182.15v-.21a.69.69,0,0,1,0-.2c.05-.59.07-1.17.07-1.74a3.31,3.31,0,0,0-1-2.41,3.47,3.47,0,0,0-4.83,0,3.37,3.37,0,0,0-1,2.41,5.71,5.71,0,0,0,.55,2.18,18.52,18.52,0,0,0,1.77,3.06c.65.95,1.33,1.84,2,2.68l1.74,2s.27.29.81.92l2.25,2.48h-5.34l-.44-.51c-.64-.7-1.34-1.5-2.11-2.41s-1.5-1.87-2.21-2.89a19.4,19.4,0,0,1-2.14-3.74,9.55,9.55,0,0,1-.85-3.74,7.38,7.38,0,0,1,12.61-5.2,7.26,7.26,0,0,1,2,3.54l1.33-.17a8.9,8.9,0,0,0-2.35-4.32,8.56,8.56,0,0,0-6.92-2.52,8.71,8.71,0,0,0-8,8.67,11,11,0,0,0,1,4.25,21,21,0,0,0,2.28,4,31.05,31.05,0,0,0,2.07,2.7c.72.85,1.4,1.63,2,2.33h-5.24c-.79-.95-1.49-1.88-2.1-2.78a26.78,26.78,0,0,1-1.46-2.28,22.43,22.43,0,0,1-1.23-2.45,14.69,14.69,0,0,1-1.29-5.78,12.36,12.36,0,0,1,1-4.92,12.87,12.87,0,0,1,2.7-4,13,13,0,0,1,4-2.74,12.68,12.68,0,0,1,9.87,0,12.76,12.76,0,0,1,6.75,6.75,12.19,12.19,0,0,1,1,4.92q0,.66,0,1l-4.66.56C298.29,181.78,296.74,182,295.18,182.15Z"/><path class="cls-2" d="M293.65,189.39a2.31,2.31,0,0,0-.16-.19A1.19,1.19,0,0,0,293.65,189.39Z"/><path class="cls-2" d="M289.34,209.28a4,4,0,0,0-.06.4c0,.6-.07,1.17-.07,1.71a3.43,3.43,0,0,0,3.38,3.38,3.43,3.43,0,0,0,3.39-3.38,5.89,5.89,0,0,0-.54-2.14,18,18,0,0,0-1.74-3c-.65-.93-1.32-1.82-2-2.66s-1.34-1.58-1.92-2.23l-.44-.43-.13-.17v0L287,198.29h5.23a3.72,3.72,0,0,0,.43.5l2.08,2.4a33,33,0,0,1,2.17,2.83,22.93,22.93,0,0,1,2.12,3.72,9.12,9.12,0,0,1,.87,3.65,7.33,7.33,0,0,1-12.47,5.16,7.14,7.14,0,0,1-1.94-3.52l-1.27.17A8.39,8.39,0,0,0,287.1,218a8.29,8.29,0,0,0,4.95,2,8.43,8.43,0,0,0,6.64-2.5,8.31,8.31,0,0,0,2.48-6.06,10.88,10.88,0,0,0-.94-4.19,17.83,17.83,0,0,0-1-2c-.39-.66-.8-1.3-1.22-1.93-.65-.93-1.33-1.82-2.05-2.66s-1.37-1.61-2-2.33h5.12c.74.92,1.44,1.83,2.11,2.75a28.16,28.16,0,0,1,2.62,4.66,14.75,14.75,0,0,1,1.27,5.69,12,12,0,0,1-1,4.87,13.24,13.24,0,0,1-2.66,4,13.05,13.05,0,0,1-4,2.67,12.57,12.57,0,0,1-9.73,0,12.39,12.39,0,0,1-6.63-6.64,12,12,0,0,1-1-4.87c0-.18,0-.5,0-1l4.61-.57Z"/><rect class="cls-1" x="0.49" y="350.32" width="307.04" height="235.87"/><path class="cls-3" d="M46,371.46c.73.47,1.48.91,2.19,1.4q41.82,28.67,83.6,57.4a5.83,5.83,0,0,1,2.12,3.26c.85,3.68,1.29,7.46,2.1,11.15a7.18,7.18,0,0,0,1.85,2.91,5.91,5.91,0,0,0,2.25,1.49c6.05,2.24,6.43,7.55,7.14,13-.73-.53-1.27-.87-1.75-1.28-5.72-4.83-11.45-9.65-17.11-14.54a7.85,7.85,0,0,1-2.19-2.88A18.81,18.81,0,0,0,120.4,436Q83.89,404.8,47.49,373.51c-.62-.53-1.2-1.1-1.8-1.65Z"/><path class="cls-3" d="M264.34,371.87c-3.09,2.66-6.17,5.34-9.26,8q-33.83,29-67.63,58a9.12,9.12,0,0,0-2.48,3.27,17.13,17.13,0,0,1-5.34,6.9c-5.59,4.56-11,9.31-17.16,14.49.77-3.62,1.25-6.57,2.09-9.41a4.22,4.22,0,0,1,2.32-2c5.41-2.37,8.21-6.39,8.18-12.35,0-5.45,2.94-8.63,7.39-11.63,26.67-18,53.12-36.27,79.65-54.45.63-.43,1.31-.79,2-1.18Z"/><path class="cls-4" d="M161.24,501.42c-.17-2.28-.33-4.57-.49-6.85,0-.33,0-.66-.06-1-.32-3.31-2.51-5.23-6-5.22a5.45,5.45,0,0,0-5.43,5.28c-.22,2.6-.36,5.2-.59,8.6-2.65-3.85-6.33-6.06-5.92-11a143.67,143.67,0,0,0,.05-14.53c0-1.49.4-2.33,1.93-2.51a5,5,0,0,0,1.42-.38c6.53-2.88,12.94-1.74,19.37.41a2,2,0,0,1,1.6,2.28c0,5.67,0,11.34,0,17a3.39,3.39,0,0,1-.38,1.87c-1.59,2.15-3.28,4.23-4.94,6.33Zm-.87-23.17.39-.53c-.29-.62-.4-1.56-.88-1.8a10.13,10.13,0,0,0-9.8,0c-.49.25-.61,1.18-.9,1.8l.38.53A11,11,0,0,1,160.37,478.25ZM149.18,482l.39.51a12.52,12.52,0,0,1,11-.29c-.1-.89-.24-1.79-.72-2a10.18,10.18,0,0,0-9.8,0C149.59,480.47,149.47,481.41,149.18,482Z"/><path class="cls-5" d="M174.87,508.59V493.85c0-3.53.24-7.09-.05-10.6-.6-7.18.59-13.78,4.73-19.85.93-1.37.76-3.5,1.22-5.94l-14.93,6.38-.28-.46,5.21-4.5c3-2.58,6-5.18,9-7.69a3.25,3.25,0,0,1,2.09-.73c1.73.12,3.44.48,5.21.76,1.87,8.66-2.59,16-6.6,24.12l4.53-1.78.51.53-6.32,14.48,4.64-2.84C182,494.14,179.86,501.83,174.87,508.59Z"/><path class="cls-5" d="M123.32,451.21c1.79-.28,3.51-.59,5.24-.8a2.11,2.11,0,0,1,1.5.31c4.94,4.19,9.84,8.43,14.49,13.12l-14.93-6.35c.47,2.43.32,4.59,1.27,6,4,6,5,12.52,4.69,19.63-.4,8.44-.09,16.92-.4,25.48-4.7-6.76-6.78-14.5-8.7-22.9l4.72,2.87-6.34-14.52.74-.43,4.28,1.76C126.05,467.29,121.31,460,123.32,451.21Z"/><path class="cls-6" d="M153.42,446.23h3.19l.28-5.78h6.44s-1.16,9.1-1.73,13.13c-.54,3.74-1.07,7.48-1.64,11.21-.18,1.19-4,4.77-4.87,4.31-1.8-1-4.47-2.21-4.77-3.74-1.58-7.86-3.73-23.94-3.73-23.94h6.5Z"/><path class="cls-7" d="M165.16,422.94c-.52-3.47-1.1-6.93-1.52-10.4-.17-1.45-.71-2-2.17-1.94-4.28.07-8.55.09-12.83,0-1.56,0-2.16.48-2.33,2a67.14,67.14,0,0,1-1.91,10.19c-.33-5.66-.75-11.33-1-17-.08-2.24,2.4-4.34,4.68-4.34h13.81c2.21,0,4.66,2.22,4.57,4.45-.21,5.66-.61,11.31-.94,17Z"/><path class="cls-6" d="M166.28,400a22.71,22.71,0,0,0-4.49-1.13c-4.6-.14-9.21-.14-13.8,0A19.85,19.85,0,0,0,143.7,400c.56-3.18,1.18-6.89,1.94-10.58.08-.34,1-.71,1.58-.71,5.18-.06,10.35-.08,15.53,0a2.34,2.34,0,0,1,1.74,1.41C165.23,393.56,165.77,397,166.28,400Z"/><path class="cls-8" d="M182.92,492.81c.7-1.6.85-2.83,1.55-3.41,6.51-5.43,8.84-12.87,10.11-20.79.48-3,.49-6.05.76-9.07.12-1.42-.28-2.38-1.8-2.67a10.07,10.07,0,0,1-1.16-.42c-4.13-1.47-4.13-1.47-3.33-6.23,3.33.86,6.66,1.66,9.95,2.63a2,2,0,0,1,.93,1.62c-.53,8-1.14,16.07-3.7,23.79-2,6-5.3,10.91-11.19,13.72C184.61,492.19,184.14,492.34,182.92,492.81Z"/><path class="cls-8" d="M121.11,450.17a19.84,19.84,0,0,0,.11,2.09c.4,2.13-.41,3.19-2.55,3.87-4.2,1.31-4.19,1.46-4,6,.32,6.27,1.15,12.51,4,18.14,1.58,3.07,4,5.68,6.08,8.53a11.38,11.38,0,0,1,1.75,3.5,16.35,16.35,0,0,1-9.19-6.61c-3.77-5.32-5.12-11.51-6-17.78-.63-4.3-.95-8.65-1.25-13a2.55,2.55,0,0,1,1.2-2.1C114.41,451.8,117.61,451.07,121.11,450.17Z"/><path class="cls-6" d="M163,424.59c-1.69,1.26-2.81,2.72-4.13,2.94a23.69,23.69,0,0,1-7.7,0c-1.32-.21-2.44-1.67-4.14-2.94.5-3.18,1.11-7.11,1.74-11.12h12.49C161.85,417.46,162.47,421.4,163,424.59Z"/><path class="cls-7" d="M144.52,427.55c2.28-.05,4.26-.75,5.56,1.55.25.45,1.25.64,1.92.68a31.41,31.41,0,0,0,5.4,0c1.07-.14,2-1,3.09-1.33,1.44-.51,2.91-.89,5-1.53-.64,4.16-1.12,7.52-1.71,10.86a1.56,1.56,0,0,1-1.17.91c-5.39.06-10.79,0-16.39,0Z"/><path class="cls-3" d="M173.74,422.26c-1.47-2-2.94-3.94-4.3-5.95a2.7,2.7,0,0,1-.18-1.64q2.64-31,5.33-61.93c0-.15.1-.29.41-.43C174.58,375.69,174.16,399.07,173.74,422.26Z"/><path class="cls-3" d="M135.35,352.28q1.31,15.06,2.6,30.12,1.35,15.74,2.71,31.46a3.56,3.56,0,0,1-1.16,3.38c-1.38,1.33-2,3.44-3.24,5.71-.44-23.82-.87-47.23-1.31-70.65Z"/><path class="cls-5" d="M141.36,419.39l3.55,29.74c-2.39-1.57-4.31-2.79-6.16-4.1a2.3,2.3,0,0,1-.83-1.39A45.13,45.13,0,0,1,139,422.26a21,21,0,0,1,1.55-3.11Z"/><path class="cls-5" d="M165.05,449.09c1.24-10.32,2.4-20,3.56-29.66l.75-.26a24.28,24.28,0,0,1,1.59,3.24c2.25,7,2.26,14.06,1.09,21.2a2.36,2.36,0,0,1-.8,1.41C169.37,446.33,167.43,447.54,165.05,449.09Z"/><path class="cls-7" d="M134.41,429l-8.66-5.87c2.75-3.58,2.08-9.5,8.66-10.34Z"/><path class="cls-7" d="M184.42,423.23l-8.59,5.84V412.85c2.83.4,4.81,1.18,5.71,3.87C182.26,418.88,183.37,420.91,184.42,423.23Z"/><path class="cls-4" d="M120,448l-9.69,2.29c.22-4.19,4.88-10.87,8.43-11.73.91-.23,2.35.78,3.2,1.6.42.39.2,1.67,0,2.47C121.46,444.27,120.81,445.8,120,448Z"/><path class="cls-4" d="M190.08,448.08c-1-2.31-1.82-4-2.37-5.8a2.7,2.7,0,0,1,.48-2.31c.93-.83,1.83-2.33,3.54-1.25,4.23,2.67,6.88,6.45,8.36,11.72Z"/><path d="M188.09,461.68a20.77,20.77,0,0,1,3.35.84c.76.32,1.95,1.14,1.89,1.58-.2,1.41-.5,3.39-1.47,4-2.59,1.62-5.56,2.64-8.62,4C184.82,468.72,186.37,465.38,188.09,461.68Z"/><path d="M121.87,461.67l4.85,10.4a79,79,0,0,1-8.92-4.1c-.89-.54-1-2.56-1.15-3.94,0-.46,1-1.18,1.74-1.47A24.82,24.82,0,0,1,121.87,461.67Z"/><path class="cls-8" d="M140.12,492.29c-2.45-6-2.71-12.4-2.8-19,2.19.33,3.58.84,3.49,3.43-.18,5.15-.05,10.31-.05,15.46Z"/><path class="cls-8" d="M172.57,473.21c.06,6.56-.26,12.89-2.67,18.92l-.67-.05c0-5,.13-10.09-.06-15.13C169.07,474.47,170.21,473.61,172.57,473.21Z"/><path class="cls-7" d="M156.56,504h-2.89V490.55h2.89Z"/><path d="M118.55,475.5l4.18-2.05,5,11.29c-1.24-1.12-2-1.87-2.88-2.58-.56-.47-1.18-1.22-1.77-1.22C119.5,480.94,119.56,478,118.55,475.5Z"/><path d="M182.39,484.24l4.83-10.68a2.23,2.23,0,0,1,.89.32c1,.74,3,1.8,2.89,2.3-.49,1.92-.51,4.27-3.62,4.74C185.61,481.19,184.07,483.07,182.39,484.24Z"/><path class="cls-4" d="M158.85,511.74h-7.71c.62-2,1.09-3.88,1.83-5.64a2.35,2.35,0,0,1,1.87-1c.74,0,1.88.42,2.13,1A54,54,0,0,1,158.85,511.74Z"/><path class="cls-5" d="M151.56,492.38c.16,5.54,1.54,11.17-1.18,16.5C150.4,503.36,150.14,497.81,151.56,492.38Z"/><path class="cls-5" d="M159.57,508.65c-2.69-5.27-1.25-10.83-1.27-16.29C160.12,497.67,159.34,503.21,159.57,508.65Z"/><path d="M146.36,466.66c-5.35,3.29-7.53-.52-9.81-4.11Z"/><path d="M173.11,462.67c-3.3,5.76-3.34,5.78-9.38,3.95Z"/><path d="M128.1,448.76c-2.35,1.45-4,1.14-5.22-.48s-1-3.29.89-5.27c.17,1.79-.11,3.33.53,4.2S126.47,448.15,128.1,448.76Z"/><path d="M181.76,448.45c3.71,0,5.18-1.64,4-5.33,2.2,1.87,2.48,3.52,1.39,5.06S184.25,450.07,181.76,448.45Z"/><path class="cls-1" d="M160.37,478.25a11,11,0,0,0-10.81,0l-.38-.53c.29-.62.41-1.55.9-1.8a10.13,10.13,0,0,1,9.8,0c.48.24.59,1.18.88,1.8Z"/><path class="cls-1" d="M149.18,482c.29-.62.41-1.56.88-1.8a10.18,10.18,0,0,1,9.8,0c.48.25.62,1.15.72,2a12.52,12.52,0,0,0-11,.29Z"/><path class="cls-2" d="M10.13,549.31V534a15,15,0,0,1,9.11-13.92,15,15,0,0,1,11.63,0,15.14,15.14,0,0,1,4.76,3.21A14.74,14.74,0,0,1,38.81,528,14.27,14.27,0,0,1,40,533.75v15.56H35.18v-17.2a4.8,4.8,0,0,0-.63-2.37q-3.43-6.06-9.51-6.06c-4,0-7.14,2-9.45,6a4.72,4.72,0,0,0-.64,2.38v17.22Z"/><path class="cls-2" d="M34.22,549.31H29.4V533.75a4,4,0,0,0-1.14-2.83,3.77,3.77,0,0,0-5.42,0,4,4,0,0,0-1.15,2.83v15.56H16.88V533.75a8.44,8.44,0,0,1,2.52-6.17A8.32,8.32,0,0,1,25.55,525a8.24,8.24,0,0,1,6.14,2.59,8.41,8.41,0,0,1,2.53,6.17Z"/><path class="cls-4" d="M67,545.06a13,13,0,0,0-2.36-7.84,7.08,7.08,0,0,0-5.84-3.32H50.59v21.19H46.74v-25h12a9.88,9.88,0,0,1,5,1.32,12.65,12.65,0,0,1,4,3.63A16.39,16.39,0,0,1,70,539.57a18.21,18.21,0,0,1,.83,5.52v10H67Z"/><path class="cls-4" d="M58.78,535.83a6.18,6.18,0,0,1,5.06,2.91A11.91,11.91,0,0,1,66,546v10.1H62.15V545.88A8.13,8.13,0,0,0,60.72,541a2.6,2.6,0,0,0-1.94-1.27H55.41v16.38H51.56V535.83Z"/><polygon class="cls-2" points="86.24 530.05 86.24 555.09 82.39 555.09 82.39 533.9 81.42 533.9 81.42 555.09 77.57 555.09 77.57 530.05 86.24 530.05"/><polygon class="cls-2" points="21.69 568.58 21.69 584.96 10.13 584.96 10.13 554.13 14.95 554.13 14.95 579.18 15.91 579.18 15.91 563.76 34.22 563.76 34.22 579.18 35.18 579.18 35.18 554.13 40 554.13 40 584.96 29.4 584.96 29.4 568.58 21.69 568.58"/><polygon class="cls-2" points="21.69 554.13 21.69 557.98 29.4 557.98 29.4 554.13 34.22 554.13 34.22 562.8 16.88 562.8 16.88 554.13 21.69 554.13"/><polygon class="cls-4" points="55.41 584 46.74 584 46.74 558.95 50.59 558.95 50.59 580.14 51.56 580.14 51.56 558.95 55.41 558.95 55.41 584"/><polygon class="cls-4" points="70.83 558.95 70.83 584 62.15 584 62.15 558.95 66.01 558.95 66.01 580.14 66.97 580.14 66.97 558.95 70.83 558.95"/><polygon class="cls-2" points="86.24 584 77.57 584 77.57 558.95 81.42 558.95 81.42 580.14 82.39 580.14 82.39 558.95 86.24 558.95 86.24 584"/><path class="cls-5" d="M137.3,539.38a15.36,15.36,0,0,0-2.8-9.26c-1.91-2.62-4.23-3.93-6.93-3.93H99.73v25H95.87V521.38H128a11.34,11.34,0,0,1,5.85,1.58,14.91,14.91,0,0,1,4.65,4.32,19.6,19.6,0,0,1,2.65,5.45,21.58,21.58,0,0,1,1,6.59v11.92H137.3Z"/><path class="cls-5" d="M109.84,527.16q3.31,0,5.73,3.33a13.71,13.71,0,0,1,2.46,8.25v11.54h-4.82V538.91a9,9,0,0,0-1.64-5.52,3,3,0,0,0-2.21-1.42h-3.85v18.31h-3.86V527.16Z"/><path class="cls-5" d="M127.18,527.16q3.36,0,5.73,3.33a13.71,13.71,0,0,1,2.46,8.25v11.54h-3.85V538.91a9,9,0,0,0-1.64-5.52,2.94,2.94,0,0,0-2.22-1.42h-5.07a19.83,19.83,0,0,1,1.22,6.94v11.37H119V538.74a14.94,14.94,0,0,0-2.71-9,10.23,10.23,0,0,0-2.65-2.57Z"/><path class="cls-2" d="M150.78,555.09V542.52a12.24,12.24,0,0,1,7.35-11.41,11.94,11.94,0,0,1,9.38,0,12.17,12.17,0,0,1,6.4,6.48,11.81,11.81,0,0,1,1,4.74v12.76H171V540.94a3.59,3.59,0,0,0-.41-1.73q-2.79-5.15-7.79-5.15-4.84,0-7.65,4.93a4.06,4.06,0,0,0-.52,2v14.15Z"/><path class="cls-2" d="M170.05,555.09H166.2V542.33a3.15,3.15,0,0,0-1-2.32,3.44,3.44,0,0,0-4.75,0,3.23,3.23,0,0,0-1,2.32v12.76H155.6V542.33a6.91,6.91,0,0,1,2.1-5.07,7,7,0,0,1,5.13-2.12,7.2,7.2,0,0,1,7.22,7.19Z"/><polygon class="cls-8" points="190.28 555.09 186.43 555.09 186.43 533.9 185.47 533.9 185.47 555.09 181.61 555.09 181.61 530.05 190.28 530.05 190.28 555.09"/><polygon class="cls-2" points="231.61 531.01 230.53 539.68 223.04 539.68 223.04 556.06 219.18 556.06 219.18 535.83 226.72 535.83 226.88 534.86 210.1 534.86 210.23 535.83 218.22 535.83 218.22 556.06 214.37 556.06 214.37 539.68 206.84 539.68 205.76 531.01 231.61 531.01"/><path class="cls-7" d="M237.49,555.09V542.52a12.26,12.26,0,0,1,7.34-11.41,11.94,11.94,0,0,1,9.38,0,12.24,12.24,0,0,1,6.41,6.48,12,12,0,0,1,.95,4.74v12.76h-3.85V540.94a3.6,3.6,0,0,0-.42-1.73q-2.79-5.15-7.79-5.15-4.84,0-7.64,4.93a4,4,0,0,0-.53,2v14.15Z"/><path class="cls-7" d="M256.75,555.09H252.9V542.33a3.11,3.11,0,0,0-1-2.32,3.43,3.43,0,0,0-4.74,0,3.19,3.19,0,0,0-1,2.32v12.76H242.3V542.33a6.91,6.91,0,0,1,2.1-5.07,7.05,7.05,0,0,1,5.13-2.12,7.2,7.2,0,0,1,7.22,7.19Z"/><polygon class="cls-5" points="105.51 584 94.91 584 94.91 555.09 99.73 555.09 99.73 580.14 100.69 580.14 100.69 555.09 105.51 555.09 105.51 584"/><polygon class="cls-5" points="123.81 555.09 123.81 584 113.21 584 113.21 555.09 118.03 555.09 118.03 580.14 118.99 580.14 118.99 555.09 123.81 555.09"/><polygon class="cls-5" points="142.11 555.09 142.11 584 131.52 584 131.52 555.09 136.33 555.09 136.33 580.14 137.3 580.14 137.3 555.09 142.11 555.09"/><polygon class="cls-2" points="159.45 571.47 159.45 584 149.82 584 149.82 558.95 154.64 558.95 154.64 580.14 155.6 580.14 155.6 567.62 170.05 567.62 170.05 580.14 171.01 580.14 171.01 558.95 174.87 558.95 174.87 584 166.2 584 166.2 571.47 159.45 571.47"/><polygon class="cls-2" points="159.45 559.91 159.45 562.8 166.2 562.8 166.2 559.91 170.05 559.91 170.05 566.65 155.6 566.65 155.6 559.91 159.45 559.91"/><polygon class="cls-8" points="206.41 584 180.65 584 180.65 558.95 184.5 558.95 184.5 580.14 201.62 580.14 201.49 579.18 186.43 579.18 186.43 558.95 190.28 558.95 190.28 575.32 205.34 575.32 206.41 584"/><polygon class="cls-2" points="223.04 584 214.37 584 214.37 558.95 218.22 558.95 218.22 580.14 219.18 580.14 219.18 558.95 223.04 558.95 223.04 584"/><polygon class="cls-7" points="246.16 571.47 246.16 584 237.49 584 237.49 558.95 241.34 558.95 241.34 580.14 242.3 580.14 242.3 567.62 256.75 567.62 256.75 580.14 257.72 580.14 257.72 558.95 261.57 558.95 261.57 584 252.9 584 252.9 571.47 246.16 571.47"/><polygon class="cls-7" points="246.16 559.91 246.16 562.8 252.9 562.8 252.9 559.91 256.75 559.91 256.75 566.65 242.3 566.65 242.3 559.91 246.16 559.91"/><path class="cls-2" d="M285.65,544.36v-.2a.71.71,0,0,1,0-.2c0-.56.06-1.12.06-1.67a3.29,3.29,0,0,0-3.3-3.27,3.19,3.19,0,0,0-2.33,1,3.27,3.27,0,0,0-1,2.32,5.44,5.44,0,0,0,.52,2.1,18.56,18.56,0,0,0,1.71,2.94c.63.92,1.28,1.78,2,2.59l1.67,1.9s.26.27.79.88l2.16,2.39h-5.14l-.43-.49c-.61-.67-1.29-1.45-2-2.32s-1.45-1.8-2.13-2.78a18.76,18.76,0,0,1-2.06-3.61,9.16,9.16,0,0,1-.82-3.6,7.1,7.1,0,0,1,7.11-7.1,6.9,6.9,0,0,1,5,2.09,7,7,0,0,1,1.9,3.41l1.27-.17a8.54,8.54,0,0,0-2.25-4.15,8.28,8.28,0,0,0-6.67-2.43,8.06,8.06,0,0,0-4.71,1.95,8.19,8.19,0,0,0-3,6.4,10.72,10.72,0,0,0,.91,4.1,21.12,21.12,0,0,0,2.2,3.86,30.73,30.73,0,0,0,2,2.6c.7.82,1.36,1.57,2,2.24h-5a29.59,29.59,0,0,1-2-2.68,22.69,22.69,0,0,1-1.41-2.19,23.61,23.61,0,0,1-1.18-2.36,14.15,14.15,0,0,1-1.24-5.57,11.81,11.81,0,0,1,1-4.74,12.25,12.25,0,0,1,2.6-3.87,12.62,12.62,0,0,1,3.88-2.63,12.14,12.14,0,0,1,9.51,0,12.21,12.21,0,0,1,6.5,6.5,11.65,11.65,0,0,1,1,4.74q0,.63,0,1l-4.49.53Z"/><path class="cls-2" d="M284.42,551.27a2.31,2.31,0,0,0-.16-.19A1.19,1.19,0,0,0,284.42,551.27Z"/><path class="cls-2" d="M280,570.5a1.86,1.86,0,0,0-.07.38q-.06.87-.06,1.65a3.24,3.24,0,0,0,5.55,2.29,3.08,3.08,0,0,0,1-2.29,5.86,5.86,0,0,0-.52-2.07,18.11,18.11,0,0,0-1.68-2.87,31.88,31.88,0,0,0-2-2.56c-.68-.81-1.3-1.53-1.86-2.15l-.42-.42-.13-.16v0l-2.09-2.36h5a4.52,4.52,0,0,0,.42.49c.6.68,1.27,1.45,2,2.3a32.77,32.77,0,0,1,2.1,2.73,21.43,21.43,0,0,1,2,3.58,8.78,8.78,0,0,1,.84,3.52,7.05,7.05,0,0,1-12,5,7,7,0,0,1-1.88-3.39l-1.22.16a8.27,8.27,0,0,0,13.94,4.1,8,8,0,0,0,2.39-5.84,10.36,10.36,0,0,0-.91-4,16.68,16.68,0,0,0-1-1.93c-.38-.63-.77-1.25-1.18-1.85a31.71,31.71,0,0,0-2-2.57c-.69-.8-1.32-1.55-1.9-2.24h4.94c.71.88,1.38,1.77,2,2.65A28.22,28.22,0,0,1,294,567a14.29,14.29,0,0,1,1.22,5.49,11.47,11.47,0,0,1-.95,4.69,11.79,11.79,0,0,1-6.4,6.39,11.94,11.94,0,0,1-9.38,0,11.9,11.9,0,0,1-6.39-6.39,11.63,11.63,0,0,1-.95-4.69c0-.17,0-.49,0-.94l4.44-.55Z"/><path class="cls-2" d="M279.16,570.23l-.25-.28v0Z"/><polygon class="cls-2" points="278.99 570.51 279.21 570.75 278.96 570.51 278.99 570.51"/><text class="cls-9" transform="translate(330 33.06)">A logo ma<tspan class="cls-10" x="76.41" y="0">r</tspan><tspan x="82.12" y="0">ca do si</tspan><tspan class="cls-11" x="137.86" y="0">t</tspan><tspan x="143.71" y="0">e </tspan><tspan class="cls-12" x="156.54" y="0">A</tspan><tspan x="167.5" y="0">ni</tspan><tspan class="cls-13" x="181.71" y="0">M</tspan><tspan x="196.29" y="0">altas de</tspan><tspan class="cls-14" x="253.96" y="0">v</tspan><tspan x="262.44" y="0">e semp</tspan><tspan class="cls-10" x="316.67" y="0">r</tspan><tspan x="322.37" y="0">e obede</tspan><tspan class="cls-15" x="383.52" y="0">c</tspan><tspan x="391.47" y="0">er a no</tspan><tspan class="cls-16" x="442.56" y="0">r</tspan><tspan x="448.51" y="0">mas </tspan><tspan x="0" y="21.6">de aplicação aqui mencionada</tspan><tspan class="cls-17" x="227.97" y="21.6">s</tspan><tspan class="cls-18" x="234.9" y="21.6">, e se não mencionadas (por falha </tspan><tspan x="0" y="43.2">ou esquecime</tspan><tspan class="cls-19" x="105.14" y="43.2">n</tspan><tspan class="cls-15" x="115.05" y="43.2">t</tspan><tspan x="120.91" y="43.2">o </tspan><tspan class="cls-20" x="134.6" y="43.2">L</tspan><tspan x="142.4" y="43.2">OL, f</tspan><tspan class="cls-21" x="176.09" y="43.2">a</tspan><tspan class="cls-10" x="184.62" y="43.2">v</tspan><tspan x="193.1" y="43.2">or questionar os p</tspan><tspan class="cls-14" x="328.37" y="43.2">r</tspan><tspan x="334.07" y="43.2">op</tspan><tspan class="cls-22" x="354.2" y="43.2">r</tspan><tspan x="360.16" y="43.2">ieta</tspan><tspan class="cls-22" x="388.02" y="43.2">r</tspan><tspan x="393.98" y="43.2">ios dos di</tspan><tspan class="cls-10" x="464.36" y="43.2">r</tspan><tspan x="470.06" y="43.2">ei</tspan><tspan x="483.29" y="43.2">-</tspan><tspan class="cls-23" x="0" y="64.8">t</tspan><tspan x="5.85" y="64.8">os sob</tspan><tspan class="cls-24" x="53.93" y="64.8">r</tspan><tspan class="cls-25" x="59.63" y="64.8">e a mesma a fim de evitar quaisquer t</tspan><tspan class="cls-26" x="338.36" y="64.8">r</tspan><tspan x="344.15" y="64.8">ans</tspan><tspan class="cls-15" x="369.95" y="64.8">t</tspan><tspan x="375.8" y="64.8">o</tspan><tspan class="cls-16" x="385.68" y="64.8">r</tspan><tspan x="391.63" y="64.8">nos)</tspan><tspan x="0" y="86.4"></tspan><tspan class="cls-23" x="0" y="108">A</tspan><tspan x="10.91" y="108">s </tspan><tspan class="cls-23" x="21.85" y="108">c</tspan><tspan x="29.81" y="108">o</tspan><tspan class="cls-24" x="39.69" y="108">r</tspan><tspan x="45.4" y="108">es ficam no pad</tspan><tspan class="cls-26" x="163.1" y="108">r</tspan><tspan x="168.89" y="108">ão p</tspan><tspan class="cls-10" x="201.51" y="108">r</tspan><tspan x="207.21" y="108">e</tspan><tspan class="cls-11" x="216.23" y="108">t</tspan><tspan x="222.08" y="108">o sob</tspan><tspan class="cls-10" x="263.03" y="108">r</tspan><tspan x="268.74" y="108">e b</tspan><tspan class="cls-26" x="291.81" y="108">r</tspan><tspan x="297.61" y="108">an</tspan><tspan class="cls-11" x="316.27" y="108">c</tspan><tspan x="324.23" y="108">o e </tspan><tspan class="cls-15" x="350.76" y="108">c</tspan><tspan x="358.72" y="108">olo</tspan><tspan class="cls-16" x="382.73" y="108">r</tspan><tspan x="388.68" y="108">ido sob</tspan><tspan class="cls-10" x="444" y="108">r</tspan><tspan x="449.7" y="108">e </tspan><tspan x="0" y="129.6">b</tspan><tspan class="cls-26" x="10.24" y="129.6">r</tspan><tspan x="16.04" y="129.6">an</tspan><tspan class="cls-23" x="34.7" y="129.6">c</tspan><tspan x="42.66" y="129.6">o(#FF0000, #FFFF00, #0000ff e #000000/ </tspan><tspan class="cls-10" x="345.98" y="129.6">v</tspan><tspan x="354.46" y="129.6">e</tspan><tspan class="cls-22" x="363.48" y="129.6">r</tspan><tspan x="369.43" y="129.6">melh</tspan><tspan class="cls-27" x="407.7" y="129.6">o</tspan><tspan x="417.15" y="129.6">, ama</tspan><tspan class="cls-10" x="457.06" y="129.6">r</tspan><tspan x="462.76" y="129.6">el</tspan><tspan class="cls-27" x="476.03" y="129.6">o</tspan><tspan class="cls-28" x="485.48" y="129.6">, </tspan><tspan x="0" y="151.2">azul e p</tspan><tspan class="cls-10" x="57.44" y="151.2">r</tspan><tspan x="63.14" y="151.2">e</tspan><tspan class="cls-23" x="72.16" y="151.2">t</tspan><tspan x="78.01" y="151.2">o </tspan><tspan class="cls-10" x="91.71" y="151.2">r</tspan><tspan x="97.42" y="151.2">espeti</tspan><tspan class="cls-19" x="142.99" y="151.2">v</tspan><tspan x="151.58" y="151.2">ame</tspan><tspan class="cls-29" x="184.28" y="151.2">n</tspan><tspan class="cls-11" x="194.2" y="151.2">t</tspan><tspan x="200.05" y="151.2">e)</tspan><tspan x="0" y="194.4">A ap</tspan><tspan class="cls-10" x="33.75" y="194.4">r</tspan><tspan x="39.46" y="194.4">ese</tspan><tspan class="cls-19" x="64.62" y="194.4">n</tspan><tspan x="74.54" y="194.4">tação em escalas 16x16</tspan><tspan class="cls-30" x="249.47" y="194.4">p</tspan><tspan x="259.46" y="194.4">x, 32x32</tspan><tspan class="cls-30" x="320.61" y="194.4">p</tspan><tspan x="330.6" y="194.4">x e 256x256</tspan><tspan class="cls-30" x="419.31" y="194.4">p</tspan><tspan x="429.3" y="194.4">x são </tspan><tspan x="0" y="216">por pad</tspan><tspan class="cls-26" x="58.89" y="216">r</tspan><tspan x="64.69" y="216">ão a unica </tspan><tspan class="cls-31" x="144.23" y="216">f</tspan><tspan x="149.25" y="216">o</tspan><tspan class="cls-16" x="159.14" y="216">r</tspan><tspan x="165.09" y="216">ma de se </tspan><tspan class="cls-10" x="235.54" y="216">v</tspan><tspan x="244.02" y="216">er a imagem do</tspan><tspan class="cls-32" x="361.07" y="216"> </tspan><tspan x="363.39" y="216">“</tspan><tspan class="cls-22" x="369.76" y="216">R</tspan><tspan x="379.52" y="216">obo</tspan><tspan class="cls-13" x="409.53" y="216">M</tspan><tspan x="424.11" y="216">alt</tspan><tspan class="cls-33" x="442.99" y="216">a</tspan><tspan class="cls-34" x="451.07" y="216">”</tspan><tspan x="455.89" y="216"> </tspan><tspan x="0" y="237.6">sepa</tspan><tspan class="cls-26" x="35.06" y="237.6">r</tspan><tspan x="40.86" y="237.6">ado da noemação</tspan><tspan class="cls-32" x="175.23" y="237.6"> </tspan><tspan class="cls-35" x="177.55" y="237.6">“</tspan><tspan class="cls-12" x="182.7" y="237.6">A</tspan><tspan x="193.66" y="237.6">ni</tspan><tspan class="cls-36" x="207.86" y="237.6">M</tspan><tspan x="222.44" y="237.6">alta</tspan><tspan class="cls-37" x="250" y="237.6">s</tspan><tspan class="cls-38" x="256.82" y="237.6">”</tspan><tspan x="260.42" y="237.6">. </tspan><tspan x="0" y="280.8">A logo ju</tspan><tspan class="cls-39" x="67.01" y="280.8">n</tspan><tspan class="cls-23" x="76.93" y="280.8">t</tspan><tspan x="82.78" y="280.8">o ao banner semp</tspan><tspan class="cls-10" x="217.87" y="280.8">r</tspan><tspan x="223.58" y="280.8">e se ap</tspan><tspan class="cls-14" x="275.29" y="280.8">r</tspan><tspan x="280.99" y="280.8">ese</tspan><tspan class="cls-29" x="306.16" y="280.8">n</tspan><tspan x="316.07" y="280.8">ta nas escalas </tspan><tspan x="0" y="302.4">970x250</tspan><tspan class="cls-30" x="63.74" y="302.4">p</tspan><tspan x="73.73" y="302.4">x, 468x60</tspan><tspan class="cls-30" x="144.1" y="302.4">p</tspan><tspan x="154.09" y="302.4">x e 300x250</tspan><tspan class="cls-30" x="242.81" y="302.4">p</tspan><tspan x="252.8" y="302.4">x</tspan></text><rect class="cls-2" x="337.95" y="542.76" width="44.55" height="44.55" transform="translate(-206.79 922.15) rotate(-89.68)"/><rect class="cls-3" x="338.27" y="484.52" width="44.55" height="44.55" transform="translate(-148.23 864.54) rotate(-89.68)"/><rect class="cls-7" x="338.61" y="422.47" width="44.55" height="44.55" transform="translate(-85.84 803.18) rotate(-89.68)"/><rect class="cls-6" x="338.94" y="362.85" width="44.55" height="44.55" transform="translate(-25.89 744.22) rotate(-89.68)"/><rect class="cls-40" x="422.62" y="542.69" width="44.55" height="44.55" transform="translate(-122.52 1006.74) rotate(-89.68)"/><rect class="cls-41" x="422.94" y="484.44" width="44.55" height="44.55" transform="translate(-63.95 949.13) rotate(-89.68)"/><rect class="cls-42" x="423.28" y="422.4" width="44.55" height="44.55" transform="translate(-1.56 887.77) rotate(-89.68)"/><rect class="cls-43" x="423.61" y="362.77" width="44.55" height="44.55" transform="translate(58.38 828.81) rotate(-89.68)"/><rect class="cls-44" x="507.29" y="542.61" width="44.55" height="44.55" transform="translate(-38.24 1091.33) rotate(-89.68)"/><rect class="cls-45" x="507.61" y="484.37" width="44.55" height="44.55" transform="translate(20.33 1033.73) rotate(-89.68)"/><rect class="cls-46" x="507.95" y="422.32" width="44.55" height="44.55" transform="translate(82.71 972.37) rotate(-89.68)"/><rect class="cls-47" x="508.28" y="362.7" width="44.55" height="44.55" transform="translate(142.66 913.4) rotate(-89.68)"/><rect class="cls-48" x="591.96" y="542.54" width="44.55" height="44.55" transform="translate(46.04 1175.92) rotate(-89.68)"/><rect class="cls-49" x="592.28" y="484.29" width="44.55" height="44.55" transform="translate(104.61 1118.32) rotate(-89.68)"/><rect class="cls-50" x="592.62" y="422.24" width="44.55" height="44.55" transform="translate(166.99 1056.96) rotate(-89.68)"/><rect class="cls-51" x="592.95" y="362.62" width="44.55" height="44.55" transform="translate(226.94 997.99) rotate(-89.68)"/><rect class="cls-52" x="676.63" y="542.46" width="44.55" height="44.55" transform="translate(130.32 1260.52) rotate(-89.68)"/><rect class="cls-53" x="676.95" y="484.21" width="44.55" height="44.55" transform="translate(188.88 1202.91) rotate(-89.68)"/><rect class="cls-54" x="677.29" y="422.17" width="44.55" height="44.55" transform="translate(251.27 1141.55) rotate(-89.68)"/><rect class="cls-55" x="677.62" y="362.55" width="44.55" height="44.55" transform="translate(311.22 1082.59) rotate(-89.68)"/><rect class="cls-56" x="761.29" y="542.39" width="44.55" height="44.55" transform="translate(214.6 1345.11) rotate(-89.68)"/><rect class="cls-56" x="761.62" y="484.14" width="44.55" height="44.55" transform="translate(273.16 1287.5) rotate(-89.68)"/><rect class="cls-56" x="761.96" y="422.09" width="44.55" height="44.55" transform="translate(335.55 1226.14) rotate(-89.68)"/><rect class="cls-56" x="762.29" y="362.47" width="44.55" height="44.55" transform="translate(395.49 1167.18) rotate(-89.68)"/><line class="cls-57" x1="442.59" y1="384.75" x2="694.58" y2="569.54"/><line class="cls-57" x1="702.08" y1="384.75" x2="437.1" y2="560.62"/></svg>