<svg id="Camada_1" data-name="Camada 1" xmlns="http://www.w3.org/2000/svg" viewBox="0 0 32 32"><defs><style>.cls-1{fill:#f1e433;}.cls-2{fill:#c23334;}.cls-3{fill:#399742;}.cls-4{fill:#b52c2e;}.cls-5{fill:#354591;}.cls-6{fill:#e9e338;}.cls-7{fill:#fff;}</style></defs><title>Prancheta 2.2</title><path class="cls-1" d="M.14,7.78A3.53,3.53,0,0,1,.46,8q6.11,4.17,12.2,8.37a.88.88,0,0,1,.31.48c.12.53.19,1.08.3,1.62a1.16,1.16,0,0,0,.27.43.89.89,0,0,0,.33.21c.88.33.94,1.11,1,1.91l-.25-.19c-.84-.7-1.67-1.41-2.5-2.12a1.1,1.1,0,0,1-.32-.42A2.72,2.72,0,0,0,11,17.19L.36,8.08.1,7.84Z"/><path class="cls-1" d="M32,7.84,30.65,9l-9.87,8.46a1.29,1.29,0,0,0-.36.48,2.55,2.55,0,0,1-.78,1c-.82.67-1.61,1.36-2.5,2.12.11-.53.18-1,.3-1.38a.66.66,0,0,1,.34-.29A1.81,1.81,0,0,0,19,17.6a2,2,0,0,1,1.08-1.7C23.94,13.28,27.8,10.61,31.67,8L32,7.78Z"/><path class="cls-2" d="M17,26.74c0-.33-.05-.66-.08-1V25.6a.84.84,0,0,0-1.67,0c0,.38-.05.76-.09,1.25-.38-.56-.92-.88-.86-1.6s0-1.42,0-2.12c0-.22.06-.34.28-.37a.83.83,0,0,0,.21-.06,3.77,3.77,0,0,1,2.82.06.3.3,0,0,1,.24.34c0,.82,0,1.65,0,2.48a.49.49,0,0,1-.06.27c-.23.32-.47.62-.72.93Zm-.13-3.38.06-.07c0-.09-.06-.23-.13-.27a1.51,1.51,0,0,0-1.43,0c-.07,0-.09.18-.13.27l.05.07A1.62,1.62,0,0,1,16.83,23.36Zm-1.63.55.05.08a1.82,1.82,0,0,1,1.61,0c0-.13,0-.27-.1-.3a1.48,1.48,0,0,0-1.43,0C15.26,23.69,15.24,23.82,15.2,23.91Z"/><path class="cls-3" d="M19,27.79V25.64c0-.52,0-1,0-1.55a4.23,4.23,0,0,1,.69-2.89,2.86,2.86,0,0,0,.18-.87l-2.18.93,0-.07c.25-.22.5-.44.76-.65l1.31-1.13a.47.47,0,0,1,.3-.1c.26,0,.51.07.76.11.28,1.26-.37,2.34-1,3.52l.66-.26.08.08-.93,2.11.68-.42A8.4,8.4,0,0,1,19,27.79Z"/><path class="cls-3" d="M11.42,19.42l.77-.12a.28.28,0,0,1,.22.05c.72.61,1.43,1.23,2.11,1.91l-2.18-.93a2.69,2.69,0,0,0,.19.88,4.52,4.52,0,0,1,.68,2.87c-.06,1.23,0,2.46-.06,3.71a9.28,9.28,0,0,1-1.27-3.34l.69.42-.92-2.12.11-.06.62.26C11.82,21.76,11.13,20.7,11.42,19.42Z"/><path class="cls-4" d="M15.82,18.69h.46l0-.84h.94s-.17,1.32-.25,1.91l-.24,1.64c0,.17-.59.69-.71.63s-.65-.32-.7-.55c-.23-1.14-.54-3.49-.54-3.49h.95Z"/><path class="cls-5" d="M17.53,15.29c-.08-.5-.16-1-.22-1.52,0-.21-.11-.28-.32-.28H15.12c-.23,0-.32.07-.34.3a9.76,9.76,0,0,1-.28,1.49c-.05-.83-.11-1.66-.14-2.48a.7.7,0,0,1,.68-.64h2a.72.72,0,0,1,.67.65c0,.83-.09,1.65-.14,2.48Z"/><path class="cls-4" d="M17.69,12a2.85,2.85,0,0,0-.65-.17c-.67,0-1.35,0-2,0a3.34,3.34,0,0,0-.62.16c.08-.46.17-1,.28-1.54,0-.05.15-.1.23-.11.76,0,1.51,0,2.27,0a.33.33,0,0,1,.25.21C17.54,11,17.62,11.51,17.69,12Z"/><path class="cls-6" d="M20.12,25.49c.1-.24.12-.42.23-.5a4.61,4.61,0,0,0,1.47-3c.07-.44.07-.89.11-1.33a.31.31,0,0,0-.26-.39,1.15,1.15,0,0,1-.17-.06c-.6-.21-.6-.21-.49-.91.49.13,1,.25,1.46.39a.27.27,0,0,1,.13.23,13.09,13.09,0,0,1-.54,3.47,3.16,3.16,0,0,1-1.63,2Z"/><path class="cls-6" d="M11.1,19.27a2.11,2.11,0,0,0,0,.3c.06.31-.06.47-.37.56-.62.2-.62.22-.58.88a6.32,6.32,0,0,0,.59,2.64,11.76,11.76,0,0,0,.88,1.25,1.75,1.75,0,0,1,.26.51,2.37,2.37,0,0,1-1.34-1,5.72,5.72,0,0,1-.88-2.59c-.09-.63-.14-1.26-.19-1.9,0-.1.09-.28.18-.3C10.12,19.5,10.59,19.4,11.1,19.27Z"/><path class="cls-4" d="M17.21,15.53c-.25.19-.41.4-.6.43a3.57,3.57,0,0,1-1.13,0c-.19,0-.35-.24-.6-.42l.25-1.63H17Z"/><path class="cls-5" d="M14.52,16c.33,0,.62-.1.81.23,0,.07.18.1.28.1a5.21,5.21,0,0,0,.79,0,2.49,2.49,0,0,0,.45-.2l.73-.22c-.09.61-.16,1.1-.25,1.58a.22.22,0,0,1-.17.14c-.78,0-1.57,0-2.39,0Z"/><path class="cls-1" d="M18.78,15.19c-.21-.29-.43-.57-.63-.87a.35.35,0,0,1,0-.23q.38-4.53.77-9A.11.11,0,0,1,19,5Z"/><path class="cls-1" d="M13.18,5c.13,1.47.25,2.93.38,4.4L14,14a.49.49,0,0,1-.17.49,3.5,3.5,0,0,0-.47.83L13.12,5Z"/><path class="cls-3" d="M14.06,14.77l.51,4.34-.9-.59a.48.48,0,0,1-.12-.21,6.6,6.6,0,0,1,.17-3.12,3.74,3.74,0,0,1,.22-.45Z"/><path class="cls-3" d="M17.51,19.11,18,14.78l.11,0a3.39,3.39,0,0,1,.23.47,6.51,6.51,0,0,1,.16,3.1.36.36,0,0,1-.11.2C18.14,18.71,17.86,18.88,17.51,19.11Z"/><path class="cls-5" d="M13,16.18l-1.26-.86c.4-.52.3-1.38,1.26-1.51Z"/><path class="cls-5" d="M20.34,15.33l-1.25.86V13.82c.41.06.7.17.83.57A9.42,9.42,0,0,0,20.34,15.33Z"/><path class="cls-2" d="M10.94,19l-1.41.33a2.29,2.29,0,0,1,1.23-1.71c.13,0,.34.11.46.23s0,.25,0,.36S11.06,18.63,10.94,19Z"/><path class="cls-2" d="M21.17,19a7.36,7.36,0,0,1-.35-.85.38.38,0,0,1,.07-.33c.14-.12.27-.34.52-.18a2.8,2.8,0,0,1,1.22,1.71Z"/><path d="M20.87,20.94a3.17,3.17,0,0,1,.49.13c.11.05.29.16.28.23s-.07.49-.22.58a9.65,9.65,0,0,1-1.25.59Z"/><path d="M11.21,20.94l.71,1.52a10.41,10.41,0,0,1-1.3-.6c-.13-.08-.15-.37-.17-.57s.15-.17.26-.22A5.16,5.16,0,0,1,11.21,20.94Z"/><path class="cls-6" d="M13.87,25.41a7.57,7.57,0,0,1-.4-2.77c.32,0,.52.12.51.5,0,.75,0,1.5,0,2.25Z"/><path class="cls-6" d="M18.61,22.63a7.14,7.14,0,0,1-.39,2.76h-.1c0-.73,0-1.47,0-2.21C18.1,22.81,18.27,22.69,18.61,22.63Z"/><path class="cls-5" d="M16.27,27.13h-.42v-2h.42Z"/><path d="M10.73,23l.61-.3.73,1.65-.42-.38c-.08-.06-.17-.18-.25-.18C10.87,23.76,10.88,23.33,10.73,23Z"/><path d="M20,24.24l.71-1.56a.4.4,0,0,1,.13,0c.15.11.44.27.42.34-.07.28-.08.62-.53.69C20.51,23.79,20.29,24.07,20,24.24Z"/><path class="cls-2" d="M16.61,28.25H15.48a7.89,7.89,0,0,1,.27-.82.34.34,0,0,1,.27-.15c.11,0,.28.06.31.14C16.45,27.68,16.51,28,16.61,28.25Z"/><path class="cls-3" d="M15.54,25.43a4.56,4.56,0,0,1-.17,2.4A10.18,10.18,0,0,1,15.54,25.43Z"/><path class="cls-3" d="M16.71,27.8a4.93,4.93,0,0,1-.18-2.38A8.27,8.27,0,0,1,16.71,27.8Z"/><path d="M14.79,21.67c-.78.48-1.1-.07-1.44-.6Z"/><path d="M18.69,21.09c-.48.84-.49.84-1.37.58Z"/><path d="M12.12,19.06c-.34.21-.58.17-.76-.07s-.14-.48.13-.77c0,.26,0,.49.08.61S11.88,19,12.12,19.06Z"/><path d="M20,19c.54,0,.76-.24.59-.78.32.27.36.51.2.74S20.31,19.25,20,19Z"/><path class="cls-7" d="M16.83,23.36a1.62,1.62,0,0,0-1.58,0l-.05-.07c0-.09.06-.23.13-.27a1.51,1.51,0,0,1,1.43,0c.07,0,.09.18.13.27Z"/><path class="cls-7" d="M15.2,23.91c0-.09.06-.22.13-.26a1.48,1.48,0,0,1,1.43,0c.07,0,.09.17.1.3a1.82,1.82,0,0,0-1.61,0Z"/></svg>